<?xml version="1.0" encoding="UTF-8"?><svg id="Layer_2" xmlns="http://www.w3.org/2000/svg" viewBox="0 0 510.42 510.02"><g id="Layer_1-2"><path d="M506.39,234.6c-2.45-6.11-6.8-10.96-11.43-15.58-65.64-65.6-131.3-131.19-196.83-196.91-9.08-9.1-18.08-18.05-30.71-22.11h-23.95c-9.9,3.72-18.24,9.54-25.76,17.09C150.8,84.26,83.71,151.24,16.68,218.28c-1.77,1.76-3.54,3.53-5.17,5.41C4.38,231.88,.48,241.45,.04,252.27c-1.13,27.37,19.89,48.99,47.62,49.23,8.01,.07,7.05-1.27,7.06,7.18,.03,48.06-.03,96.13,.03,144.19,.04,33.48,23.73,57.08,57.22,57.12,25.28,.04,50.56,.02,75.84,.01,12.99,0,18.52-5.5,18.52-18.48,.01-38.09-.02-76.17,.01-114.26,.02-17.47,10.13-27.63,27.5-27.68,14.3-.05,28.61-.04,42.91,0,17.67,.04,27.74,10.18,27.75,27.94,.02,38.42-.01,76.84,.02,115.26,.01,11.28,5.99,17.22,17.26,17.23,25.95,.02,51.89-.02,77.84,.02,4.68,.01,9.31-.39,13.84-1.48,25.55-6.14,42.56-27.67,42.62-54.41,.13-47.9,.04-95.8,.04-143.7,0-8.78,.01-8.65,8.8-8.99,34.7-1.37,54.48-34.31,41.47-66.84Zm-27.13,27.13c-2.98,6.23-8.06,9.62-15.02,9.77-6.65,.14-13.3,.03-19.96,.05-12.33,.02-18.09,5.7-18.1,17.91-.01,27.44,0,54.89,0,82.33s.01,53.21,0,79.82c-.01,18.68-9.87,28.45-28.7,28.45s-38.93-.1-58.38,.09c-3.72,.03-4.75-.93-4.73-4.7,.14-33.26,.2-66.53,.04-99.79-.14-27.33-17.34-48.79-43.49-54.66-2.91-.65-5.92-1.12-8.89-1.14-17.79-.1-35.63-.89-53.37,.15-30.79,1.79-52.05,24.94-52.22,55.81-.19,32.76-.15,65.53,.06,98.3,.04,4.71-.98,6.15-5.93,6.07-19.62-.32-39.25-.11-58.87-.14-16.66-.02-27.01-10.38-27.02-27.11-.02-54.22,0-108.44-.01-162.67,0-13.26-5.49-18.71-18.8-18.73-6.32,0-12.65,.07-18.96-.03-7.39-.12-12.76-3.69-15.64-10.4-2.89-6.75-1.65-13.17,3.45-18.44,8.21-8.49,16.65-16.75,25-25.1,60.22-60.22,120.43-120.43,180.65-180.65,10.84-10.84,19.35-10.81,30.26,.1,67.27,67.27,134.55,134.54,201.81,201.82,1.53,1.53,3.13,3.01,4.47,4.7,4.42,5.56,5.44,11.71,2.35,18.19Z"/></g></svg>