<svg width="511" height="514" viewBox="0 0 511 514" fill="none" xmlns="http://www.w3.org/2000/svg">
<path fill-rule="evenodd" clip-rule="evenodd" d="M494.964 222.02C499.594 226.64 503.944 231.49 506.394 237.6V237.61C519.404 270.14 499.624 303.08 464.924 304.45L464.543 304.465C456.133 304.788 456.124 304.788 456.124 313.44C456.124 327.346 456.131 341.252 456.139 355.158C456.157 389.152 456.176 423.146 456.083 457.14C456.023 483.88 439.013 505.41 413.464 511.55C408.934 512.64 404.303 513.04 399.624 513.03C384.787 513.007 369.954 513.01 355.12 513.014C344.008 513.016 332.897 513.019 321.784 513.01C310.514 513 304.534 507.06 304.523 495.78C304.507 474.822 304.509 453.863 304.51 432.905C304.511 415.443 304.513 397.982 304.504 380.52C304.493 362.76 294.424 352.62 276.754 352.58C262.454 352.54 248.143 352.53 233.843 352.58C216.473 352.63 206.363 362.79 206.343 380.26C206.325 403.115 206.329 425.966 206.333 448.819C206.335 464.052 206.337 479.285 206.333 494.52C206.333 507.5 200.803 513 187.813 513C184.215 513.001 180.616 513.003 177.017 513.005C155.336 513.015 133.655 513.024 111.973 512.99C78.4835 512.95 54.7935 489.35 54.7535 455.87C54.7192 428.407 54.7241 400.94 54.729 373.474C54.7327 352.875 54.7364 332.277 54.7235 311.68C54.7185 307.453 54.9562 305.676 54.1927 304.947C53.4298 304.218 51.6671 304.535 47.6635 304.5C19.9335 304.26 -1.0865 282.64 0.0434959 255.27C0.483496 244.45 4.3835 234.88 11.5135 226.69C13.1435 224.81 14.9135 223.04 16.6835 221.28C33.1009 204.86 49.5218 188.444 65.9429 172.028C116.567 121.418 167.191 70.8083 217.714 20.09C225.234 12.54 233.574 6.71998 243.473 2.99998L247.722 1.94031C252.828 0.66644 258.17 0.671856 263.275 1.95608L267.424 2.99998C280.054 7.05998 289.054 16.01 298.134 25.11C356.881 84.0276 415.733 142.841 474.581 201.65C481.375 208.44 488.169 215.23 494.964 222.02Z" fill="#1B75BC"/>
</svg>
