<?xml version="1.0" encoding="UTF-8" standalone="no"?>
<svg
   xmlns:dc="http://purl.org/dc/elements/1.1/"
   xmlns:cc="http://creativecommons.org/ns#"
   xmlns:rdf="http://www.w3.org/1999/02/22-rdf-syntax-ns#"
   xmlns:svg="http://www.w3.org/2000/svg"
   xmlns="http://www.w3.org/2000/svg"
   viewBox="0 0 362.05334 126.64"
   height="126.64"
   width="362.05334"
   xml:space="preserve"
   id="svg3"
   version="1.1"><metadata
     id="metadata8"><rdf:RDF><cc:Work
         rdf:about=""><dc:format>image/svg+xml</dc:format><dc:type
           rdf:resource="http://purl.org/dc/dcmitype/StillImage" /></cc:Work></rdf:RDF></metadata><defs
     id="defs6"><clipPath
       id="clipPath20"
       clipPathUnits="userSpaceOnUse"><path
         id="path18"
         d="M 0,474.891 474.895,0 949.797,474.891 474.895,949.785 Z" /></clipPath><radialGradient
       id="radialGradient30"
       spreadMethod="pad"
       gradientTransform="matrix(474.895,0,0,-474.895,474.897,474.892)"
       gradientUnits="userSpaceOnUse"
       r="1"
       cy="0"
       cx="0"
       fy="0"
       fx="0"><stop
         id="stop22"
         offset="0"
         style="stop-opacity:1;stop-color:#ffffff" /><stop
         id="stop24"
         offset="0.265306"
         style="stop-opacity:1;stop-color:#75329b" /><stop
         id="stop26"
         offset="0.852041"
         style="stop-opacity:1;stop-color:#242052" /><stop
         id="stop28"
         offset="1"
         style="stop-opacity:1;stop-color:#242052" /></radialGradient><clipPath
       id="clipPath40"
       clipPathUnits="userSpaceOnUse"><path
         id="path38"
         d="M 575.676,574.949 V 775.398 H 776.105 V 574.949 Z" /></clipPath><radialGradient
       id="radialGradient46"
       spreadMethod="pad"
       gradientTransform="matrix(328.457,0,0,-328.457,474.312,475.937)"
       gradientUnits="userSpaceOnUse"
       r="1"
       cy="0"
       cx="0"
       fy="0"
       fx="0"><stop
         id="stop42"
         offset="0"
         style="stop-opacity:1;stop-color:#ffffff" /><stop
         id="stop44"
         offset="1"
         style="stop-opacity:1;stop-color:#75329b" /></radialGradient><clipPath
       id="clipPath56"
       clipPathUnits="userSpaceOnUse"><path
         id="path54"
         d="m 173.379,575.242 -0.012,200.461 H 373.828 V 575.242 Z" /></clipPath><radialGradient
       id="radialGradient62"
       spreadMethod="pad"
       gradientTransform="matrix(328.511,0,0,-328.511,474.058,476.225)"
       gradientUnits="userSpaceOnUse"
       r="1"
       cy="0"
       cx="0"
       fy="0"
       fx="0"><stop
         id="stop58"
         offset="0"
         style="stop-opacity:1;stop-color:#ffffff" /><stop
         id="stop60"
         offset="1"
         style="stop-opacity:1;stop-color:#75329b" /></radialGradient><clipPath
       id="clipPath72"
       clipPathUnits="userSpaceOnUse"><path
         id="path70"
         d="M 375.254,374.824 V 575.281 H 575.715 L 575.703,374.824 Z" /></clipPath><radialGradient
       id="radialGradient78"
       spreadMethod="pad"
       gradientTransform="matrix(328.448,0,0,-328.448,474.312,475.054)"
       gradientUnits="userSpaceOnUse"
       r="1"
       cy="0"
       cx="0"
       fy="0"
       fx="0"><stop
         id="stop74"
         offset="0"
         style="stop-opacity:1;stop-color:#ffffff" /><stop
         id="stop76"
         offset="1"
         style="stop-opacity:1;stop-color:#75329b" /></radialGradient><clipPath
       id="clipPath88"
       clipPathUnits="userSpaceOnUse"><path
         id="path86"
         d="m 374.07,374.824 0.024,200.457 H 574.563 V 374.824 Z" /></clipPath><radialGradient
       id="radialGradient94"
       spreadMethod="pad"
       gradientTransform="matrix(328.458,0,0,-328.458,474.316,475.054)"
       gradientUnits="userSpaceOnUse"
       r="1"
       cy="0"
       cx="0"
       fy="0"
       fx="0"><stop
         id="stop90"
         offset="0"
         style="stop-opacity:1;stop-color:#ffffff" /><stop
         id="stop92"
         offset="1"
         style="stop-opacity:1;stop-color:#75329b" /></radialGradient><clipPath
       id="clipPath104"
       clipPathUnits="userSpaceOnUse"><path
         id="path102"
         d="M 575.969,174.082 V 374.559 H 776.418 V 174.082 Z" /></clipPath><radialGradient
       id="radialGradient110"
       spreadMethod="pad"
       gradientTransform="matrix(328.46,0,0,-328.46,474.609,473.603)"
       gradientUnits="userSpaceOnUse"
       r="1"
       cy="0"
       cx="0"
       fy="0"
       fx="0"><stop
         id="stop106"
         offset="0"
         style="stop-opacity:1;stop-color:#ffffff" /><stop
         id="stop108"
         offset="1"
         style="stop-opacity:1;stop-color:#75329b" /></radialGradient><clipPath
       id="clipPath120"
       clipPathUnits="userSpaceOnUse"><path
         id="path118"
         d="m 173.379,174.688 v 200.468 l 200.449,-0.011 0.02,-200.457 z" /></clipPath><radialGradient
       id="radialGradient126"
       spreadMethod="pad"
       gradientTransform="matrix(328.465,0,0,-328.465,474.082,474.17)"
       gradientUnits="userSpaceOnUse"
       r="1"
       cy="0"
       cx="0"
       fy="0"
       fx="0"><stop
         id="stop122"
         offset="0"
         style="stop-opacity:1;stop-color:#ffffff" /><stop
         id="stop124"
         offset="1"
         style="stop-opacity:1;stop-color:#75329b" /></radialGradient></defs><g
     transform="matrix(1.3333333,0,0,-1.3333333,0,126.64)"
     id="g10"><g
       transform="scale(0.1)"
       id="g12"><g
         id="g14"><g
           clip-path="url(#clipPath20)"
           id="g16"><path
             id="path32"
             style="fill:url(#radialGradient30);fill-opacity:1;fill-rule:nonzero;stroke:none"
             d="M 0,474.891 474.895,0 949.797,474.891 474.895,949.785 0,474.891" /></g></g><g
         id="g34"><g
           clip-path="url(#clipPath40)"
           id="g36"><path
             id="path48"
             style="fill:url(#radialGradient46);fill-opacity:1;fill-rule:nonzero;stroke:none"
             d="M 575.676,574.949 V 775.398 H 776.105 V 574.949 H 575.676" /></g></g><g
         id="g50"><g
           clip-path="url(#clipPath56)"
           id="g52"><path
             id="path64"
             style="fill:url(#radialGradient62);fill-opacity:1;fill-rule:nonzero;stroke:none"
             d="m 173.379,575.242 -0.012,200.461 H 373.828 V 575.242 H 173.379" /></g></g><g
         id="g66"><g
           clip-path="url(#clipPath72)"
           id="g68"><path
             id="path80"
             style="fill:url(#radialGradient78);fill-opacity:1;fill-rule:nonzero;stroke:none"
             d="M 375.254,374.824 V 575.281 H 575.715 L 575.703,374.824 H 375.254" /></g></g><g
         id="g82"><g
           clip-path="url(#clipPath88)"
           id="g84"><path
             id="path96"
             style="fill:url(#radialGradient94);fill-opacity:1;fill-rule:nonzero;stroke:none"
             d="m 374.07,374.824 0.024,200.457 H 574.563 V 374.824 H 374.07" /></g></g><g
         id="g98"><g
           clip-path="url(#clipPath104)"
           id="g100"><path
             id="path112"
             style="fill:url(#radialGradient110);fill-opacity:1;fill-rule:nonzero;stroke:none"
             d="M 575.969,174.082 V 374.559 H 776.418 V 174.082 H 575.969" /></g></g><g
         id="g114"><g
           clip-path="url(#clipPath120)"
           id="g116"><path
             id="path128"
             style="fill:url(#radialGradient126);fill-opacity:1;fill-rule:nonzero;stroke:none"
             d="m 173.379,174.688 v 200.468 l 200.449,-0.011 0.02,-200.457 H 173.379" /></g></g><path
         id="path130"
         style="fill:#ffffff;fill-opacity:1;fill-rule:nonzero;stroke:none"
         d="m 1194.32,475.566 c 0.39,39.883 -25.14,67.813 -60.24,67.813 -24.31,0 -42.67,-11.973 -57.42,-28.32 v -88.164 c 13.55,-11.954 30.7,-20.743 55.43,-20.743 37.5,0 61.84,30.723 62.23,69.414 z M 1028.4,331.172 h 27.91 v 209.004 h -27.91 v 18.359 h 47.46 v -25.937 c 14.75,17.558 33.1,29.121 59.43,29.121 44.26,0 80.57,-33.906 80.57,-85.762 0,-47.07 -31.91,-88.144 -84.57,-88.144 -20.33,0 -40.27,7.968 -54.63,20.742 v -77.383 h 34.69 v -18.34 h -82.95 v 18.34" /><path
         id="path132"
         style="fill:#ffffff;fill-opacity:1;fill-rule:nonzero;stroke:none"
         d="m 1219.55,409.355 h 27.93 v 255.274 h -27.93 v 18.34 h 48.26 V 471.582 l 79.77,69.395 h -37.09 v 17.558 h 92.95 v -18.359 h -29.12 l -59.44,-51.055 56.23,-79.766 h 32.33 v -18.359 h -43.48 l -59.84,87.363 -32.31,-27.519 v -41.485 h 29.92 v -18.359 h -78.18 v 18.359" /><path
         id="path134"
         style="fill:#ffffff;fill-opacity:1;fill-rule:nonzero;stroke:none"
         d="m 1542.97,416.133 h -114.08 l -3.19,7.578 126.04,169.922 15.96,-11.582 -109.3,-147.578 h 84.57 v 61.425 l 19.94,8.379 v -69.804 h 47.07 v -18.34 h -47.07 v -72.988 h -19.94 v 72.988" /><path
         id="path136"
         style="fill:#ffffff;fill-opacity:1;fill-rule:nonzero;stroke:none"
         d="m 1690,409.355 h 27.93 V 540.176 H 1690 v 18.359 h 47.46 V 525.43 c 15.16,19.941 39.1,36.289 63.03,36.289 21.93,0 35.51,-7.578 42.67,-20.742 2.41,-4.395 3.99,-9.571 5.2,-14.766 19.14,20.352 42.28,35.508 64.22,35.508 24.72,0 37.89,-9.18 44.67,-24.336 3.98,-9.18 5.58,-20.332 5.58,-32.695 v -95.333 h 27.91 v -18.359 h -76.17 v 18.359 h 27.91 v 92.54 c 0,9.96 -1.19,17.949 -3.57,23.925 -4.79,11.563 -13.97,16.758 -29.53,16.758 -22.74,0 -40.69,-13.965 -58.64,-33.515 v -99.708 h 27.52 v -18.359 h -76.17 v 18.359 h 28.32 v 92.54 c 0,9.96 -1.21,17.949 -3.59,23.925 -4.79,11.563 -13.97,16.758 -29.52,16.758 -23.94,0 -42.69,-15.566 -59.04,-34.316 v -98.907 h 27.93 V 390.996 H 1690 v 18.359" /><path
         id="path138"
         style="fill:#ffffff;fill-opacity:1;fill-rule:nonzero;stroke:none"
         d="m 2017.36,487.93 h 112.87 c -2.38,32.695 -20.74,55.449 -55.84,55.449 -29.1,0 -53.04,-21.543 -57.03,-55.449 z m -0.39,-17.95 c 3.19,-42.285 28.71,-63.417 69.01,-63.417 23.12,0 37.89,7.167 57.83,18.75 l -1.99,-20.743 c -17.15,-11.172 -38.69,-16.757 -58.64,-16.757 -53.04,0 -87.75,35.898 -87.75,86.562 0,45.859 30.31,87.344 80.96,87.344 48.28,0 74.59,-37.891 74.59,-78.574 0,-5.997 -0.39,-9.571 -1.19,-13.165 h -132.82" /><path
         id="path140"
         style="fill:#ffffff;fill-opacity:1;fill-rule:nonzero;stroke:none"
         d="m 2316.93,434.473 v 87.363 c -13.55,11.953 -30.7,21.543 -55.43,21.543 -37.5,0 -61.83,-30.723 -62.22,-69.414 -0.41,-39.883 25.11,-67.813 60.21,-67.813 24.34,0 42.7,11.973 57.44,28.321 z m -139.2,39.101 c 0,47.051 31.92,88.145 84.56,88.145 20.35,0 39.9,-7.578 54.64,-21.543 v 124.453 h -34.68 v 18.34 h 55.04 V 409.355 h 27.91 v -18.359 h -47.47 v 25.938 c -14.76,-17.559 -33.1,-29.121 -59.43,-29.121 -44.28,0 -80.57,33.906 -80.57,85.761" /><path
         id="path142"
         style="fill:#ffffff;fill-opacity:1;fill-rule:nonzero;stroke:none"
         d="m 2402.71,628.73 c 0,10.372 8.38,19.141 18.75,19.141 9.97,0 18.34,-8.769 18.34,-19.141 0,-10.371 -8.37,-19.14 -18.34,-19.14 -10.37,0 -18.75,8.769 -18.75,19.14 z m -17.53,-219.375 h 29.51 v 130.821 h -29.51 v 18.359 h 49.84 v -149.18 h 29.92 v -18.359 h -79.76 v 18.359" /><path
         id="path144"
         style="fill:#ffffff;fill-opacity:1;fill-rule:nonzero;stroke:none"
         d="m 2603.48,432.539 v 28.34 c -13.58,4.394 -32.35,8.379 -50.32,8.379 -29.55,0 -43.92,-14.375 -43.92,-32.344 0,-17.969 13.57,-31.953 39.94,-31.953 22.75,0 41.5,12.793 54.3,27.578 z m -114.59,3.184 c 0,30.351 27.15,50.703 63.45,50.703 18.38,0 43.15,-5.996 51.14,-9.59 v 27.949 c 0,9.59 -2.8,17.969 -7.99,23.965 -7.58,8.379 -20.35,13.965 -38.34,13.965 -15.96,0 -23.95,-4.395 -30.35,-8.789 1.62,-3.184 2.79,-6.387 2.79,-10.781 0,-8.399 -5.98,-15.157 -15.16,-15.157 -9.59,0 -15.56,7.188 -15.56,15.957 0,18.77 22.75,37.129 60.68,37.129 22.75,0 40.31,-6.777 51.11,-18.359 8.38,-8.789 12.37,-20.352 12.37,-33.125 V 408.574 h 27.95 v -18.379 h -46.72 v 22.754 c -13.97,-14.355 -36.33,-25.937 -59.08,-25.937 -33.95,0 -56.29,20.761 -56.29,48.711" /><path
         id="path146"
         style="fill:#ffffff;fill-opacity:1;fill-rule:nonzero;stroke:none"
         d="m 2682.05,575.352 h 3.52 c 3.12,0 4.08,2.89 4.08,5.117 0,3.281 -1.6,4.551 -4.08,4.551 h -3.52 z m 0,-19.161 h -7.79 v 34.571 h 14.43 c 5.33,0 8.77,-3.203 8.77,-9.102 0,-4.375 -1.83,-7.656 -6.93,-8.457 v -0.156 c 1.66,-0.078 6.77,-0.469 6.77,-6.719 0,-2.226 0.16,-8.691 0.88,-10.137 h -7.65 c -1.04,2.071 -1.04,4.395 -1.04,6.719 0,4.063 0.65,7.578 -5.43,7.578 h -2.01 z m 27.79,17.188 c 0,13.32 -10.86,24.082 -24.02,24.082 -13.42,0 -24.18,-10.762 -24.18,-24.082 0,-13.359 10.76,-24.297 24.18,-24.297 13.16,0 24.02,10.938 24.02,24.297 z m 5.57,0 c 0,-16.543 -13.14,-29.863 -29.59,-29.863 -16.52,0 -29.78,13.32 -29.78,29.863 0,16.504 13.26,29.687 29.78,29.687 16.45,0 29.59,-13.183 29.59,-29.687" /></g></g></svg>