<?xml version="1.0" encoding="utf-8"?>
<!-- Generator: Adobe Illustrator 24.0.2, SVG Export Plug-In . SVG Version: 6.00 Build 0)  -->
<svg version="1.1" id="Layer_1" xmlns="http://www.w3.org/2000/svg" xmlns:xlink="http://www.w3.org/1999/xlink" x="0px" y="0px"
	 viewBox="0 0 16.5 16.5" style="enable-background:new 0 0 16.5 16.5;" xml:space="preserve">
<style type="text/css">
	.st0{fill:#1B75BC;}
</style>
<path class="st0" d="M15.7,5.2l-4.4-4.4C10.8,0.3,10.1,0,9.3,0H2.8C2,0,1.3,0.3,0.8,0.8C0.3,1.3,0,2,0,2.8v11c0,0.7,0.3,1.4,0.8,1.9
	c0.5,0.5,1.2,0.8,1.9,0.8h11c0.7,0,1.4-0.3,1.9-0.8c0.5-0.5,0.8-1.2,0.8-1.9V7.2C16.5,6.4,16.2,5.7,15.7,5.2z M6.4,14.7v-1.8h3.7
	v1.8H6.4z M14.7,13.8c0,0.2-0.1,0.5-0.3,0.6s-0.4,0.3-0.6,0.3h-1.8v-2.8c0-0.2-0.1-0.5-0.3-0.6C11.5,11.1,11.2,11,11,11H5.5
	c-0.2,0-0.5,0.1-0.6,0.3c-0.2,0.2-0.3,0.4-0.3,0.6v2.8H2.8c-0.2,0-0.5-0.1-0.6-0.3S1.8,14,1.8,13.8v-11c0-0.2,0.1-0.5,0.3-0.6
	s0.4-0.3,0.6-0.3h1.8v4.6c0,0.2,0.1,0.5,0.3,0.6C5,7.2,5.3,7.3,5.5,7.3h3.7c0.2,0,0.5-0.1,0.6-0.3c0.2-0.2,0.3-0.4,0.3-0.6
	c0-0.2-0.1-0.5-0.3-0.6C9.6,5.6,9.4,5.5,9.2,5.5H6.4V1.8h2.9c0.2,0,0.5,0.1,0.7,0.3l4.4,4.4c0.1,0.1,0.2,0.2,0.2,0.3
	c0,0.1,0.1,0.2,0.1,0.4V13.8z"/>
</svg>
