<?xml version="1.0" encoding="utf-8"?>
<!-- Generator: Adobe Illustrator 24.0.2, SVG Export Plug-In . SVG Version: 6.00 Build 0)  -->
<svg version="1.1" id="Layer_1" xmlns="http://www.w3.org/2000/svg" xmlns:xlink="http://www.w3.org/1999/xlink" x="0px" y="0px"
	 viewBox="0 0 22.5 22.5" style="enable-background:new 0 0 22.5 22.5;" xml:space="preserve">
<style type="text/css">
	.st0{fill:#FFFFFF;}
</style>
<path id="icon:1" class="st0" d="M12.7,13.9l2,2l-0.6,0.6l5.6,5.6c0.6,0.6,1.7,0.6,2.3,0l0,0c0.6-0.6,0.6-1.7,0-2.3l-5.6-5.6
	l-0.6,0.6l-2-2c2.6-3.2,2.3-8.1-1-10.9c-2.8-2.4-7-2.4-9.9-0.1c-3.7,3-3.9,8.4-0.7,11.6C5.1,16.2,9.6,16.3,12.7,13.9z M12.2,12.1
	c-2.4,2.4-6.3,2.4-8.7,0C1,9.7,1,5.8,3.4,3.4s6.3-2.4,8.7,0C14.6,5.8,14.6,9.7,12.2,12.1z"/>
</svg>
