<?xml version="1.0" encoding="utf-8"?>
<!-- Generator: Adobe Illustrator 24.0.2, SVG Export Plug-In . SVG Version: 6.00 Build 0)  -->
<svg version="1.1" id="Layer_1" xmlns="http://www.w3.org/2000/svg" xmlns:xlink="http://www.w3.org/1999/xlink" x="0px" y="0px"
	 viewBox="0 0 70 62.8" style="enable-background:new 0 0 70 62.8;" xml:space="preserve">
<style type="text/css">
	.st0{fill-rule:evenodd;clip-rule:evenodd;fill:#E6E7E8;}
	.st1{fill-rule:evenodd;clip-rule:evenodd;fill:#B0BD46;}
	.st2{fill-rule:evenodd;clip-rule:evenodd;fill:#C1D54B;}
	.st3{fill:#B0BD46;}
	.st4{fill-rule:evenodd;clip-rule:evenodd;fill:#FFFFFF;}
</style>
<g id="team-of-integrity">
	<path class="st0" d="M64.2,9.4c0.8,3.4,1.2,7.1,1.2,10.8c0,20.3-12.5,37.4-29.6,42.5c-0.5,0.2-1,0.2-1.6,0
		C17.1,57.5,4.6,40.4,4.6,20.1c0-3.7,0.4-7.3,1.2-10.8C6,8.6,6.5,8,7.1,7.6c0.7-0.4,1.4-0.5,2.2-0.2c2.2,0.7,4.5,1.1,6.9,1.1
		c6.5,0,12.5-2.9,16.7-7.6C33.5,0.3,34.2,0,35,0s1.5,0.3,2,0.9c4.3,4.7,10.2,7.6,16.7,7.6c2.4,0,4.7-0.4,6.9-1.1
		c0.8-0.3,1.5-0.2,2.2,0.2C63.6,8,64,8.6,64.2,9.4z"/>
	<path class="st1" d="M60.8,13.2c0.4,2.3,0.5,4.6,0.5,7c0,16.6-9.7,33-25.9,38.3L35,58.6l-0.4-0.1C18.4,53.1,8.7,36.7,8.7,20.1
		c0-2.3,0.2-4.7,0.6-7l0.2-1.4l1.4,0.3c1.8,0.4,3.6,0.6,5.4,0.6c6.7,0,12.9-2.5,17.8-7L35,4.7l0.9,0.8c4.9,4.5,11.2,7,17.8,7
		c1.8,0,3.6-0.2,5.4-0.6l1.4-0.3L60.8,13.2z"/>
	<path class="st2" d="M59.4,13.4c-1.9,0.4-3.7,0.6-5.7,0.6c-7,0-13.6-2.7-18.7-7.4C29.9,11.3,23.3,14,16.3,14
		c-1.9,0-3.8-0.2-5.6-0.6c-0.4,2.2-0.5,4.5-0.5,6.8c0,16.1,9.3,31.9,24.9,37.1C50.7,52.2,60,36.3,60,20.2
		C59.9,17.9,59.8,15.6,59.4,13.4z"/>
	<path class="st3" d="M46.8,21.6L31.1,37.3l-7.8-7.8c-0.4-0.4-1.1-0.4-1.5,0l-3,3c-0.4,0.4-0.4,1.1,0,1.5
		c14.2,14.2-2.7-2.7,11.5,11.5l0,0l0,0c0.4,0.3,1,0.4,1.4,0c6.5-6.5,13-12.9,19.4-19.4c0.4-0.4,0.4-1.1,0-1.5l-3-3
		C47.8,21.2,47.2,21.2,46.8,21.6z"/>
	<path class="st4" d="M46.8,19.9L31.1,35.7l-7.8-7.8c-0.4-0.4-1.1-0.4-1.5,0l-3,3c-0.4,0.4-0.4,1.1,0,1.5
		c14.2,14.2-2.7-2.7,11.5,11.5l0,0l0,0c0.4,0.3,1,0.4,1.4,0c6.5-6.5,13-13,19.4-19.4c0.4-0.4,0.4-1.1,0-1.5l-3-3
		C47.8,19.5,47.2,19.5,46.8,19.9z"/>
</g>
</svg>
