<?xml version="1.0" encoding="utf-8"?>
<!-- Generator: Adobe Illustrator 24.0.2, SVG Export Plug-In . SVG Version: 6.00 Build 0)  -->
<svg version="1.1" id="Layer_1" xmlns="http://www.w3.org/2000/svg" xmlns:xlink="http://www.w3.org/1999/xlink" x="0px" y="0px"
	 viewBox="0 0 49.8 68.5" style="enable-background:new 0 0 49.8 68.5;" xml:space="preserve">
<style type="text/css">
	.st0{fill:#CBD7E4;}
	.st1{fill:#498AC9;}
	.st2{fill:#3C6BB3;}
	.st3{fill:#FFFFFF;}
</style>
<g>
	<g>
		<g>
			<path class="st0" d="M39.5,62.2c0,3.5-6.6,6.4-14.6,6.4s-14.6-2.8-14.6-6.4c0-3.5,6.6-6.4,14.6-6.4S39.5,58.6,39.5,62.2z"/>
		</g>
		<g>
			<g>
				<path class="st1" d="M49.8,24.9C49.8,10.7,37.9-0.7,23.6,0C11.8,0.6,0.8,11.3,0.1,23.2c-0.6,8.5,3.2,16.2,9.2,21.1
					c5.9,4.7,10.9,10.3,14.3,17l0.7,1.4c0.2,0.4,0.8,0.4,1.1,0l0.4-0.8c3.5-6.8,8.6-12.7,14.6-17.5C46.1,39.8,49.8,32.7,49.8,24.9z"
					/>
			</g>
			<g>
				<path class="st2" d="M24.9,55.8c-1.5,0-3,0.1-4.4,0.3c1.2,1.7,2.2,3.4,3.1,5.2l0.7,1.4c0.2,0.4,0.8,0.4,1.1,0l0.4-0.8
					c1-2,2.2-3.9,3.5-5.8C27.9,55.9,26.4,55.8,24.9,55.8z"/>
			</g>
		</g>
	</g>
	<g>
		<g>
			<g>
				<path class="st0" d="M34,30.6h-4.4V18.7c0-0.3,0.2-0.5,0.5-0.5h3.3c0.3,0,0.5,0.2,0.5,0.5V30.6z"/>
			</g>
			<g>
				<rect x="15.8" y="24.8" class="st3" width="18.2" height="13.4"/>
			</g>
			<g>
				<path class="st3" d="M24.3,16.2L12.7,27.7c-0.6,0.6-0.2,1.5,0.6,1.5h23.1c0.8,0,1.2-0.9,0.6-1.5L25.5,16.2
					C25.2,15.9,24.6,15.9,24.3,16.2z"/>
			</g>
		</g>
		<g>
			<path class="st0" d="M27.6,38.2H22v-4.6c0-1.5,1.2-2.8,2.8-2.8l0,0c1.5,0,2.8,1.2,2.8,2.8V38.2z"/>
		</g>
	</g>
</g>
</svg>
