<?xml version="1.0" encoding="utf-8"?>
<!-- Generator: Adobe Illustrator 24.0.2, SVG Export Plug-In . SVG Version: 6.00 Build 0)  -->
<svg version="1.1" id="Layer_1" xmlns="http://www.w3.org/2000/svg" xmlns:xlink="http://www.w3.org/1999/xlink" x="0px" y="0px"
	 viewBox="0 0 19.8 19.8" style="enable-background:new 0 0 19.8 19.8;" xml:space="preserve">
<style type="text/css">
	.st0{fill:none;stroke:#1B75BC;stroke-width:1.8;stroke-linecap:round;stroke-linejoin:round;}
</style>
<path class="st0" d="M9.9,5.9c-1.7,0-3,0.9-3,2s1.3,2,3,2s3,0.9,3,2s-1.3,2-3,2V5.9z M9.9,5.9c1.1,0,2.1,0.4,2.6,1L9.9,5.9z
	 M9.9,5.9v-1V5.9z M9.9,5.9v8V5.9z M9.9,13.9v1V13.9z M9.9,13.9c-1.1,0-2.1-0.4-2.6-1L9.9,13.9z M18.9,9.9c0,1.2-0.2,2.4-0.7,3.4
	c-0.5,1.1-1.1,2.1-2,2.9c-0.8,0.8-1.8,1.5-2.9,2c-1.1,0.5-2.3,0.7-3.4,0.7s-2.4-0.2-3.4-0.7c-1.1-0.5-2.1-1.1-2.9-2
	c-0.8-0.8-1.5-1.8-2-2.9c-0.5-1.1-0.7-2.3-0.7-3.4c0-2.4,0.9-4.7,2.6-6.4s4-2.6,6.4-2.6c2.4,0,4.7,0.9,6.4,2.6
	C18,5.2,18.9,7.5,18.9,9.9z"/>
</svg>
