<?xml version="1.0" encoding="utf-8"?>
<!-- Generator: Adobe Illustrator 24.0.2, SVG Export Plug-In . SVG Version: 6.00 Build 0)  -->
<svg version="1.1" id="Layer_1" xmlns="http://www.w3.org/2000/svg" xmlns:xlink="http://www.w3.org/1999/xlink" x="0px" y="0px"
	 viewBox="0 0 15.3 17.8" style="enable-background:new 0 0 15.3 17.8;" xml:space="preserve">
<style type="text/css">
	.st0{fill:#1B75BC;}
</style>
<path class="st0" d="M14.4,17.8H1c-0.3,0-0.5-0.1-0.7-0.3C0.1,17.4,0,17.1,0,16.9V7.6C0,7.4,0.1,7.2,0.3,7L7,0.3
	c0.1-0.1,0.2-0.2,0.3-0.2C7.4,0,7.5,0,7.7,0C7.8,0,7.9,0,8,0.1c0.1,0,0.2,0.1,0.3,0.2L15.1,7c0.1,0.1,0.2,0.2,0.2,0.3
	c0,0.1,0.1,0.2,0.1,0.4v9.2c0,0.3-0.1,0.5-0.3,0.7C14.9,17.7,14.6,17.8,14.4,17.8z M7.7,2.3L1.9,8.1v7.8h11.5V8.1L7.7,2.3z M7.7,14
	c-0.2-0.2-0.4-0.4-0.7-0.6l0,0c-1.1-0.9-2.5-2-2.5-3.4c0-0.2,0-0.5,0.1-0.7C4.7,9.1,4.8,8.9,5,8.7c0.2-0.2,0.4-0.3,0.6-0.4
	S6,8.2,6.2,8.2c0.3,0,0.5,0.1,0.8,0.2c0.2,0.1,0.5,0.3,0.7,0.5c0.2-0.2,0.4-0.4,0.7-0.5c0.2-0.1,0.5-0.2,0.8-0.2
	c0.2,0,0.5,0,0.7,0.1c0.2,0.1,0.4,0.2,0.6,0.4c0.2,0.2,0.3,0.4,0.4,0.6c0.1,0.2,0.1,0.4,0.1,0.7c0,1.4-1.4,2.5-2.5,3.4l-0.1,0
	C8.1,13.6,7.9,13.8,7.7,14L7.7,14z"/>
</svg>
