<?xml version="1.0" encoding="utf-8"?>
<!-- Generator: Adobe Illustrator 24.0.2, SVG Export Plug-In . SVG Version: 6.00 Build 0)  -->
<svg version="1.1" id="Layer_1" xmlns="http://www.w3.org/2000/svg" xmlns:xlink="http://www.w3.org/1999/xlink" x="0px" y="0px"
	 viewBox="0 0 28.4 35.5" style="enable-background:new 0 0 28.4 35.5;" xml:space="preserve">
<path d="M14.2,0C6.4,0,0,6.4,0,14.2C0,26.1,13.2,35,13.7,35.4c0.1,0.1,0.3,0.1,0.5,0.1s0.3,0,0.5-0.1c0.6-0.4,13.7-9.3,13.7-21.2
	C28.4,6.4,22,0,14.2,0z M14.2,33.5c-2.4-1.7-12.4-9.6-12.4-19.3c0-6.9,5.6-12.4,12.4-12.4s12.4,5.6,12.4,12.4
	C26.6,23.9,16.6,31.8,14.2,33.5z M22.8,12.7l-8-7.1c-0.3-0.3-0.8-0.3-1.2,0l-8,7.1c-0.4,0.3-0.4,0.9-0.1,1.3
	c0.3,0.4,0.9,0.4,1.3,0.1l0.3-0.3v6.7c0,0.5,0.4,0.9,0.9,0.9h12.4c0.5,0,0.9-0.4,0.9-0.9v-6.7l0.3,0.3c0.2,0.2,0.4,0.2,0.6,0.2
	c0.2,0,0.5-0.1,0.7-0.3C23.2,13.5,23.1,13,22.8,12.7z M19.5,19.5H8.9v-7.4l5.3-4.7l5.3,4.7V19.5z"/>
</svg>
