<?xml version="1.0" encoding="utf-8"?>
<!-- Generator: Adobe Illustrator 24.0.2, SVG Export Plug-In . SVG Version: 6.00 Build 0)  -->
<svg version="1.1" id="Layer_1" xmlns="http://www.w3.org/2000/svg" xmlns:xlink="http://www.w3.org/1999/xlink" x="0px" y="0px"
	 viewBox="0 0 33.7 32.8" style="enable-background:new 0 0 33.7 32.8;" xml:space="preserve">
<path d="M33.4,12.6l-16-12.4c-0.3-0.2-0.8-0.2-1.1,0l-16,12.4c-0.4,0.3-0.5,0.9-0.2,1.2C0.5,14.2,1,14.3,1.4,14l1.2-1V32
	c0,0.5,0.4,0.9,0.9,0.9h26.6c0.5,0,0.9-0.4,0.9-0.9V13.1l1.2,1c0.2,0.1,0.4,0.2,0.5,0.2c0.3,0,0.5-0.1,0.7-0.3
	C33.8,13.5,33.8,12.9,33.4,12.6z M29.3,31.1H4.4V11.7L16.9,2l12.4,9.7V31.1z M7.1,18.6c0,4.9,4,8.9,8.9,8.9c2.1,0,4.1-0.8,5.6-2
	l3.6,3.6c0.2,0.2,0.4,0.3,0.6,0.3c0.2,0,0.5-0.1,0.6-0.3c0.3-0.3,0.3-0.9,0-1.3l-3.6-3.6c1.3-1.5,2-3.5,2-5.6c0-4.9-4-8.9-8.9-8.9
	S7.1,13.7,7.1,18.6z M23.1,18.6c0,3.9-3.2,7.1-7.1,7.1s-7.1-3.2-7.1-7.1s3.2-7.1,7.1-7.1S23.1,14.7,23.1,18.6z"/>
</svg>
