<?xml version="1.0" encoding="utf-8"?>
<!-- Generator: Adobe Illustrator 24.0.2, SVG Export Plug-In . SVG Version: 6.00 Build 0)  -->
<svg version="1.1" id="Layer_1" xmlns="http://www.w3.org/2000/svg" xmlns:xlink="http://www.w3.org/1999/xlink" x="0px" y="0px"
	 viewBox="0 0 70 62.8" style="enable-background:new 0 0 70 62.8;" xml:space="preserve">
<style type="text/css">
	.st0{fill:#EF5561;}
	.st1{fill:#E51C4C;}
</style>
<path class="st0" d="M63.6,35.3c2.8-2.8,4.8-6.1,5.8-9.7c3.9-14.8-11.1-28.8-25.6-25c-3.2,0.8-6.1,2.4-8.7,4.6
	c-2.6-2.2-5.6-3.8-8.7-4.6C11.7-3.2-3.3,11,0.6,25.6c1,3.6,3,6.9,5.8,9.7L33.1,62c1,1,2.7,1,3.8,0L63.6,35.3z"/>
<path class="st1" d="M64.3,34.6c2.4-2.6,4.2-5.7,5.1-8.9c3.9-14.8-11.1-28.8-25.6-25c-3.2,0.8-6.1,2.4-8.7,4.6L64.3,34.6z"/>
</svg>
