<?xml version="1.0" encoding="utf-8"?>
<!-- Generator: Adobe Illustrator 24.0.2, SVG Export Plug-In . SVG Version: 6.00 Build 0)  -->
<svg version="1.1" id="Layer_1" xmlns="http://www.w3.org/2000/svg" xmlns:xlink="http://www.w3.org/1999/xlink" x="0px" y="0px"
	 viewBox="0 0 70 62.8" style="enable-background:new 0 0 70 62.8;" xml:space="preserve">
<style type="text/css">
	.st0{display:none;}
	.st1{display:inline;fill:#EF5561;}
	.st2{display:inline;fill:#E51C4C;}
	.st3{display:inline;fill-rule:evenodd;clip-rule:evenodd;fill:#E6E7E8;}
	.st4{display:inline;}
	.st5{fill-rule:evenodd;clip-rule:evenodd;fill:#1895A3;}
	.st6{display:inline;fill-rule:evenodd;clip-rule:evenodd;fill:#16AFBE;}
	.st7{display:inline;fill-rule:evenodd;clip-rule:evenodd;fill:#173233;}
	.st8{display:inline;fill-rule:evenodd;clip-rule:evenodd;fill:#B0BD46;}
	.st9{display:inline;fill-rule:evenodd;clip-rule:evenodd;fill:#C1D54B;}
	.st10{fill-rule:evenodd;clip-rule:evenodd;fill:#B0BD46;}
	.st11{display:inline;fill-rule:evenodd;clip-rule:evenodd;fill:#FFFFFF;}
	.st12{fill-rule:evenodd;clip-rule:evenodd;fill:url(#SVGID_1_);}
	.st13{fill-rule:evenodd;clip-rule:evenodd;fill:url(#SVGID_2_);}
	.st14{fill-rule:evenodd;clip-rule:evenodd;fill:url(#SVGID_3_);}
	.st15{fill-rule:evenodd;clip-rule:evenodd;fill:#80AAD4;}
	.st16{fill-rule:evenodd;clip-rule:evenodd;fill:#72BCB7;}
	.st17{fill-rule:evenodd;clip-rule:evenodd;fill:#C1D54B;}
	.st18{fill-rule:evenodd;clip-rule:evenodd;fill:#EF5561;}
	.st19{fill-rule:evenodd;clip-rule:evenodd;fill:#EE505F;}
	.st20{fill-rule:evenodd;clip-rule:evenodd;fill:#ED4B5D;}
	.st21{fill-rule:evenodd;clip-rule:evenodd;fill:#EC455B;}
	.st22{fill-rule:evenodd;clip-rule:evenodd;fill:#EB4059;}
	.st23{fill-rule:evenodd;clip-rule:evenodd;fill:#EA3B57;}
	.st24{fill-rule:evenodd;clip-rule:evenodd;fill:#EA3656;}
	.st25{fill-rule:evenodd;clip-rule:evenodd;fill:#E93154;}
	.st26{fill-rule:evenodd;clip-rule:evenodd;fill:#E82C52;}
	.st27{fill-rule:evenodd;clip-rule:evenodd;fill:#E72650;}
	.st28{fill-rule:evenodd;clip-rule:evenodd;fill:#E6214E;}
	.st29{fill-rule:evenodd;clip-rule:evenodd;fill:#E51C4C;}
	.st30{fill-rule:evenodd;clip-rule:evenodd;fill:#FFFFFF;}
</style>
<g id="listen-empathize" class="st0">
	<path class="st1" d="M63.6,35.3c2.8-2.8,4.8-6.1,5.8-9.7c3.9-14.8-11.1-28.8-25.6-25c-3.2,0.8-6.1,2.4-8.7,4.6
		c-2.6-2.2-5.6-3.8-8.7-4.6C11.7-3.2-3.3,11,0.6,25.6c1,3.6,3,6.9,5.8,9.7L33.1,62c1,1,2.7,1,3.8,0L63.6,35.3z"/>
	<path class="st2" d="M64.3,34.6c2.4-2.6,4.2-5.7,5.1-8.9c3.9-14.8-11.1-28.8-25.6-25c-3.2,0.8-6.1,2.4-8.7,4.6L64.3,34.6z"/>
</g>
<g id="personal-approach" class="st0">
	<path class="st3" d="M24.2,0h21.6c11.3,0,20.6,9.3,20.6,20.6v21.6c0,11.3-9.3,20.6-20.6,20.6H24.2c-11.3,0-20.6-9.3-20.6-20.6V20.6
		C3.6,9.3,12.9,0,24.2,0z"/>
	<g class="st4">
		<path class="st5" d="M24.2,5.3h21.6c8.4,0,15.2,6.9,15.2,15.2v21.6c0,8.4-6.9,15.2-15.2,15.2H24.2c-8.4,0-15.2-6.9-15.2-15.2V20.6
			C8.9,12.2,15.8,5.3,24.2,5.3z"/>
	</g>
	<path class="st6" d="M24.2,10.7h21.6c8.4,0,15.2,6.9,15.2,15.2v16.3c0,8.4-6.9,15.2-15.2,15.2H24.2c-8.4,0-15.2-6.9-15.2-15.2V25.9
		C8.9,17.5,15.8,10.7,24.2,10.7z"/>
	<path class="st7" d="M57.5,52c-2.8,3.3-7,5.5-11.7,5.5H24.2c-4.7,0-8.9-2.1-11.7-5.5c4.2-4.2,10.9-5.8,16-9.8
		c0.5-0.4,0.8-1,0.8-1.7v-2.3c0-0.6-0.3-1.2-0.7-1.6c-1.6-1.4-2.7-3.2-3.2-5.3c-0.1-0.4-0.4-0.7-0.7-0.8c-1.9-0.6-2-4.8-0.2-5.5
		c0.4-0.2,0.7-0.5,0.7-1c0-0.9,0-1.7,0-2.6c0-12.9,19.5-12.9,19.5,0c0,0.9,0,1.7,0,2.6c0,0.4,0.3,0.8,0.7,1c1.8,0.7,1.8,4.9-0.2,5.5
		c-0.4,0.1-0.7,0.4-0.7,0.8c-0.5,2.1-1.6,3.9-3.2,5.3c-0.5,0.4-0.7,1-0.7,1.6v2.3c0,0.7,0.3,1.3,0.8,1.7
		C46.6,46.2,53.3,47.8,57.5,52z"/>
</g>
<g id="team-of-integrity" class="st0">
	<path class="st3" d="M64.2,9.4c0.8,3.4,1.2,7.1,1.2,10.8c0,20.3-12.5,37.4-29.6,42.5c-0.5,0.2-1,0.2-1.6,0
		C17.1,57.5,4.6,40.4,4.6,20.1c0-3.7,0.4-7.3,1.2-10.8C6,8.6,6.5,8,7.1,7.6c0.7-0.4,1.4-0.5,2.2-0.2c2.2,0.7,4.5,1.1,6.9,1.1
		c6.5,0,12.5-2.9,16.7-7.6C33.5,0.3,34.2,0,35,0c0.8,0,1.5,0.3,2,0.9c4.3,4.7,10.2,7.6,16.7,7.6c2.4,0,4.7-0.4,6.9-1.1
		c0.8-0.3,1.5-0.2,2.2,0.2C63.6,8,64,8.6,64.2,9.4z"/>
	<path class="st8" d="M60.8,13.2c0.4,2.3,0.5,4.6,0.5,7c0,16.6-9.7,33-25.9,38.3L35,58.6l-0.4-0.1C18.4,53.1,8.7,36.7,8.7,20.1
		c0-2.3,0.2-4.7,0.6-7l0.2-1.4l1.4,0.3c1.8,0.4,3.6,0.6,5.4,0.6c6.7,0,12.9-2.5,17.8-7L35,4.7l0.9,0.8c4.9,4.5,11.2,7,17.8,7
		c1.8,0,3.6-0.2,5.4-0.6l1.4-0.3L60.8,13.2z"/>
	<path class="st9" d="M59.4,13.4c-1.9,0.4-3.7,0.6-5.7,0.6c-7,0-13.6-2.7-18.7-7.4C29.9,11.3,23.3,14,16.3,14
		c-1.9,0-3.8-0.2-5.6-0.6c-0.4,2.2-0.5,4.5-0.5,6.8c0,16.1,9.3,31.9,24.9,37.1c15.6-5.1,24.9-21,24.9-37.1
		C59.9,17.9,59.8,15.6,59.4,13.4z"/>
	<g class="st4">
		<path class="st10" d="M46.8,21.6L31.1,37.3l-7.8-7.8c-0.4-0.4-1.1-0.4-1.5,0l-3,3c-0.4,0.4-0.4,1.1,0,1.5
			c14.2,14.2-2.7-2.7,11.5,11.5l0,0v0c0.4,0.3,1,0.4,1.4,0c6.5-6.5,13-12.9,19.4-19.4c0.4-0.4,0.4-1.1,0-1.5l-3-3
			C47.8,21.2,47.2,21.2,46.8,21.6z"/>
	</g>
	<path class="st11" d="M46.8,19.9L31.1,35.7l-7.8-7.8c-0.4-0.4-1.1-0.4-1.5,0l-3,3c-0.4,0.4-0.4,1.1,0,1.5
		c14.2,14.2-2.7-2.7,11.5,11.5l0,0l0,0c0.4,0.3,1,0.4,1.4,0c6.5-6.5,13-13,19.4-19.4c0.4-0.4,0.4-1.1,0-1.5l-3-3
		C47.8,19.5,47.2,19.5,46.8,19.9z"/>
</g>
<g id="locally-based">
	<linearGradient id="SVGID_1_" gradientUnits="userSpaceOnUse" x1="35.0061" y1="62.8886" x2="35.0061" y2="27.4689">
		<stop  offset="0" style="stop-color:#E9EEF5"/>
		<stop  offset="1" style="stop-color:#FFFFFF"/>
	</linearGradient>
	<path class="st12" d="M4.1,60.8c1.6-4,3-7.6,4.2-10.9c1.2-3,2.2-5.7,3.2-8.2c0.2-0.6,1.8-1.1,3.3-1.1c6.7,0,13.4,0,20.1,0
		c6.7,0,13.4,0,20.1,0c1.6,0,3.1,0.5,3.4,1.1c1,2.5,2,5.3,3.2,8.2c1.3,3.3,2.7,6.9,4.2,10.9c0.4,1.1-1.1,2-3.3,2
		c-9.2,0-18.4,0-27.6,0c-9.2,0-18.4,0-27.6,0C5.2,62.8,3.7,61.9,4.1,60.8z"/>
	<linearGradient id="SVGID_2_" gradientUnits="userSpaceOnUse" x1="47.0944" y1="48.7596" x2="43.3518" y2="42.5309">
		<stop  offset="0" style="stop-color:#EEF2F6"/>
		<stop  offset="0.61" style="stop-color:#BBCADD"/>
		<stop  offset="1" style="stop-color:#839EBD"/>
	</linearGradient>
	<path class="st13" d="M35.6,40.6h19.5c1.6,0,3.1,0.5,3.4,1.1l0.6,1.7c-6.4,4.3-17.3,10.2-23.3,11.2c-0.1,0-0.6,0.1-0.7,0.1
		L35.6,40.6z"/>
	<linearGradient id="SVGID_3_" gradientUnits="userSpaceOnUse" x1="22.985" y1="48.6433" x2="26.8357" y2="42.4809">
		<stop  offset="0" style="stop-color:#EEF2F6"/>
		<stop  offset="0.61" style="stop-color:#BBCADD"/>
		<stop  offset="1" style="stop-color:#839EBD"/>
	</linearGradient>
	<path class="st14" d="M34.5,40.6H14.9c-1.6,0-3.1,0.5-3.3,1.1l-0.6,1.7c6.4,4.3,17.4,10.2,23.3,11.2c0.1,0,0.6,0.1,0.7,0.1
		L34.5,40.6z"/>
	<path class="st15" d="M9.8,57.8h21.4v-5.6H11.7L9.8,57.8L9.8,57.8z M35.4,57.8h24.8l-1-2.9H35.4V57.8L35.4,57.8z M58.2,51.7
		l-0.9-2.7l-2.1-6.4l-11.8,9.1H58.2L58.2,51.7z M52.9,41.9l-12.6,9.8h-4.9v-1v0c0-0.9-0.7-1.6-1.6-1.6H12.7l0-0.1
		c0.8-2.5,1.6-4.8,2.3-7c6.7,0,13.3,0,20,0H52.9z"/>
	<path class="st16" d="M52.9,41.9H35c-6.7,0-13.3,0-20,0c-0.7,2.2-1.5,4.5-2.3,7l0,0.1h21.1c0.9,0,1.6,0.7,1.6,1.6v0v1h4.9
		L52.9,41.9z"/>
	<polygon class="st16" points="58.2,51.7 57.3,48.9 55.2,42.6 43.4,51.7 	"/>
	<polygon class="st17" points="35.4,57.8 60.2,57.8 59.2,54.9 35.4,54.9 	"/>
	<polygon class="st17" points="9.8,57.8 31.2,57.8 31.2,52.3 11.7,52.3 	"/>
	<polygon class="st10" points="52.9,41.9 35.4,41.9 35.4,50.5 35.4,50.7 35.4,50.7 35.4,51.7 40.3,51.7 	"/>
	<path class="st18" d="M42.8,44.1l-7,10.2c-0.2,0.3-0.5,0.4-0.8,0.4c-0.3,0-0.6-0.1-0.8-0.4l-7-10.2c-8.7-3.2-14.9-11.5-14.9-21.4
		C12.3,10.2,22.5,0,35,0s22.7,10.2,22.7,22.7C57.7,32.5,51.5,40.9,42.8,44.1z"/>
	<g>
		<path class="st18" d="M35,13.2c6.8,0,12.4,5.6,12.4,12.4C47.4,32.5,41.9,38,35,38c-6.9,0-12.4-5.6-12.4-12.4
			C22.6,18.8,28.2,13.2,35,13.2z"/>
		<path class="st19" d="M35,12.9c6.8,0,12.4,5.6,12.4,12.4c0,6.9-5.6,12.4-12.4,12.4c-6.9,0-12.4-5.6-12.4-12.4
			C22.6,18.5,28.2,12.9,35,12.9z"/>
		<path class="st20" d="M35,12.7c6.8,0,12.4,5.6,12.4,12.4c0,6.9-5.6,12.4-12.4,12.4c-6.9,0-12.4-5.6-12.4-12.4
			C22.6,18.2,28.2,12.7,35,12.7z"/>
		<path class="st21" d="M35,12.4c6.8,0,12.4,5.6,12.4,12.4c0,6.9-5.6,12.4-12.4,12.4c-6.9,0-12.4-5.6-12.4-12.4
			C22.6,18,28.2,12.4,35,12.4z"/>
		<path class="st22" d="M35,12.1c6.8,0,12.4,5.6,12.4,12.4C47.4,31.4,41.9,37,35,37c-6.9,0-12.4-5.6-12.4-12.4
			C22.6,17.7,28.2,12.1,35,12.1z"/>
		<path class="st23" d="M35,11.9c6.8,0,12.4,5.6,12.4,12.4c0,6.9-5.6,12.4-12.4,12.4c-6.9,0-12.4-5.6-12.4-12.4
			C22.6,17.4,28.2,11.9,35,11.9z"/>
		<path class="st24" d="M35,11.6c6.8,0,12.4,5.6,12.4,12.4c0,6.9-5.6,12.4-12.4,12.4c-6.9,0-12.4-5.6-12.4-12.4
			C22.6,17.2,28.2,11.6,35,11.6z"/>
		<path class="st25" d="M35,11.4c6.8,0,12.4,5.6,12.4,12.4c0,6.9-5.6,12.4-12.4,12.4c-6.9,0-12.4-5.6-12.4-12.4
			C22.6,16.9,28.2,11.4,35,11.4z"/>
		<path class="st26" d="M35,11.1c6.8,0,12.4,5.6,12.4,12.4c0,6.9-5.6,12.4-12.4,12.4c-6.9,0-12.4-5.6-12.4-12.4
			C22.6,16.7,28.2,11.1,35,11.1z"/>
		<path class="st27" d="M35,10.8c6.8,0,12.4,5.6,12.4,12.4c0,6.9-5.6,12.4-12.4,12.4c-6.9,0-12.4-5.6-12.4-12.4
			C22.6,16.4,28.2,10.8,35,10.8z"/>
		<ellipse class="st28" cx="35" cy="23" rx="12.4" ry="12.4"/>
		<path class="st29" d="M35,10.3c6.8,0,12.4,5.6,12.4,12.4S41.9,35.1,35,35.1c-6.9,0-12.4-5.6-12.4-12.4S28.2,10.3,35,10.3z"/>
	</g>
	<path class="st30" d="M35,10.3c6.8,0,12.4,5.6,12.4,12.4S41.9,35.1,35,35.1c-6.9,0-12.4-5.6-12.4-12.4S28.2,10.3,35,10.3z"/>
</g>
</svg>
