<?xml version="1.0" encoding="utf-8"?>
<!-- Generator: Adobe Illustrator 24.0.2, SVG Export Plug-In . SVG Version: 6.00 Build 0)  -->
<svg version="1.1" id="Layer_1" xmlns="http://www.w3.org/2000/svg" xmlns:xlink="http://www.w3.org/1999/xlink" x="0px" y="0px"
	 viewBox="0 0 70 62.8" style="enable-background:new 0 0 70 62.8;" xml:space="preserve">
<style type="text/css">
	.st0{fill-rule:evenodd;clip-rule:evenodd;fill:#E6E7E8;}
	.st1{fill:#1895A3;}
	.st2{fill-rule:evenodd;clip-rule:evenodd;fill:#16AFBE;}
	.st3{fill-rule:evenodd;clip-rule:evenodd;fill:#173233;}
</style>
<path class="st0" d="M24.2,0h21.6c11.3,0,20.6,9.3,20.6,20.6v21.6c0,11.3-9.3,20.6-20.6,20.6H24.2c-11.3,0-20.6-9.3-20.6-20.6V20.6
	C3.6,9.3,12.9,0,24.2,0z"/>
<path class="st1" d="M24.2,5.3h21.6c8.4,0,15.2,6.9,15.2,15.2v21.6c0,8.4-6.9,15.2-15.2,15.2H24.2C15.8,57.3,9,50.4,9,42.1V20.6
	C8.9,12.2,15.8,5.3,24.2,5.3z"/>
<path class="st2" d="M24.2,10.7h21.6c8.4,0,15.2,6.9,15.2,15.2v16.3c0,8.4-6.9,15.2-15.2,15.2H24.2C15.8,57.4,9,50.5,9,42.2V25.9
	C8.9,17.5,15.8,10.7,24.2,10.7z"/>
<path class="st3" d="M57.5,52c-2.8,3.3-7,5.5-11.7,5.5H24.2c-4.7,0-8.9-2.1-11.7-5.5c4.2-4.2,10.9-5.8,16-9.8c0.5-0.4,0.8-1,0.8-1.7
	v-2.3c0-0.6-0.3-1.2-0.7-1.6c-1.6-1.4-2.7-3.2-3.2-5.3c-0.1-0.4-0.4-0.7-0.7-0.8c-1.9-0.6-2-4.8-0.2-5.5c0.4-0.2,0.7-0.5,0.7-1
	c0-0.9,0-1.7,0-2.6c0-12.9,19.5-12.9,19.5,0c0,0.9,0,1.7,0,2.6c0,0.4,0.3,0.8,0.7,1c1.8,0.7,1.8,4.9-0.2,5.5
	c-0.4,0.1-0.7,0.4-0.7,0.8c-0.5,2.1-1.6,3.9-3.2,5.3c-0.5,0.4-0.7,1-0.7,1.6v2.3c0,0.7,0.3,1.3,0.8,1.7C46.6,46.2,53.3,47.8,57.5,52
	z"/>
</svg>
