<?xml version="1.0" encoding="utf-8"?>
<!-- <svg version="1.1" id="Layer_1" x="0px" y="0px" width="390px" height="64.3px" viewBox="0 0 390 64.3"> -->
<svg version="1.1" id="Layer_1" x="0px" y="0px" viewBox="0 0 390 64.3">
<path fill="#929496" d="M68.7,37.8c-0.6,3.5-1.7,6.8-3.3,9.7c0.5-0.1,1-0.3,1.5-0.4c0.1,0,0.3-0.1,0.4-0.1c0.7-1.4,1.3-2.9,1.8-4.5
	c0.1-0.2,0.1-0.4,0.2-0.6c0.1-0.2,0.1-0.4,0.2-0.6c0.3-1.2,0.6-2.5,0.8-3.7C69.8,37.8,69.3,37.8,68.7,37.8
	C68.7,37.8,68.7,37.8,68.7,37.8"/>
<path fill="#929496" d="M27.8,5.2C31.2,3.8,35,3,39,3c2.2,0,4.3,0.2,6.3,0.7c0.2-0.1,0.5-0.3,0.9-0.4c-0.1,0.2-0.2,0.4-0.3,0.5
	c0.4,0.1,0.9,0.2,1.3,0.3c-0.1-0.4-0.1-0.9,0-1.3c-2.5-0.6-5.1-1-7.7-1c-4.4,0-8.5,0.9-12.3,2.5C27.4,4.7,27.6,4.9,27.8,5.2"/>
<path fill="#929496" d="M9.3,37.8c-0.1,0-0.2,0-0.4,0c-0.1,0-0.2,0-0.3,0c0.5,3.3,1.6,6.5,3.1,9.4c0.2-0.1,0.5-0.2,0.7-0.2
	C10.9,44.2,9.8,41.1,9.3,37.8"/>
<path fill="#929496" d="M50.9,4.1c-0.1,0-0.1,0-0.2-0.1C50.8,4.1,50.8,4.1,50.9,4.1C50.9,4.2,50.9,4.2,50.9,4.1"/>
<path fill="#929496" d="M10.5,37.6c-0.4,0.1-0.8,0.2-1.2,0.2c0.5,3.3,1.6,6.4,3.1,9.2c0.4-0.1,0.8-0.3,1.1-0.4
	C12.1,43.8,11,40.8,10.5,37.6"/>
<path fill="#929496" d="M39.4,3.8c1.7,0,3.5,0.2,5.1,0.5c0.2-0.2,0.4-0.4,0.7-0.6C43.3,3.2,41.2,3,39,3c-4,0-7.8,0.8-11.2,2.2
	c0.2,0.3,0.4,0.6,0.5,0.9C31.7,4.6,35.5,3.8,39.4,3.8"/>
<path fill="#929496" d="M45.7,4.5c0.6,0.1,1.1,0.3,1.7,0.4c-0.1-0.3-0.1-0.5-0.2-0.8c-0.4-0.1-0.9-0.2-1.3-0.3
	C45.8,4.1,45.7,4.3,45.7,4.5"/>
<path fill="#929496" d="M67.6,41c-0.1,0.3-0.2,0.5-0.2,0.8c-0.6,2.1-1.5,4-2.6,5.9c0.2,0,0.4-0.1,0.6-0.1c1.6-3,2.8-6.3,3.3-9.7
	c-0.1,0-0.3,0-0.4,0C68.1,38.9,67.9,40,67.6,41"/>
<path fill="#929496" d="M63.1,53.4c-0.5,0.1-1,0.2-1.5,0.3c-0.2,0-0.5,0.1-0.7,0.1c-0.6,0.7-1.3,1.3-1.9,1.9
	c0.8-0.1,1.6-0.1,2.3-0.2C61.9,54.7,62.5,54,63.1,53.4"/>
<path fill="#929496" d="M39,63.1c-8.9,0-16.9-3.9-22.4-10c-0.4,0-0.7,0-1.1-0.1c5.7,6.8,14.3,11.1,23.9,11.1
	c7.1,0,13.7-2.4,18.9-6.4c-0.8,0.1-1.7,0.2-2.6,0.2C51,61.3,45.2,63.1,39,63.1"/>
<path fill="#929496" d="M14.4,50.4c-0.4-0.6-0.8-1.2-1.2-1.8c-0.1,0-0.2,0-0.3,0c-0.2,0-0.4,0-0.5,0c0.3,0.6,0.7,1.2,1.1,1.7
	C13.8,50.4,14.1,50.4,14.4,50.4"/>
<path fill="#929496" d="M39.4,62.3c-8.3,0-15.8-3.5-21.1-9c-0.6-0.1-1.1-0.1-1.7-0.1c5.5,6.1,13.5,10,22.4,10c6.2,0,12-1.9,16.8-5.1
	c-0.4,0-0.8,0-1.1,0C50.2,60.8,45,62.3,39.4,62.3"/>
<path fill="#929496" d="M58,55.7c0.3,0,0.6,0,0.9-0.1c0.7-0.6,1.3-1.2,1.9-1.9c-0.3,0-0.5,0.1-0.8,0.1C59.4,54.5,58.7,55.1,58,55.7"
	/>
<path fill="#929496" d="M14.6,48.6c-0.5,0-0.9,0-1.4,0c0.4,0.6,0.8,1.2,1.2,1.8c0.5,0,1,0,1.5,0C15.4,49.8,15,49.2,14.6,48.6"/>
<path fill="#4697D2" d="M12.1,47.3c-0.1,0-0.2,0.1-0.3,0.1c0,0,0-0.1-0.1-0.1c-0.8,0.3-1.6,0.5-2.3,0.8c0.8-0.3,1.6-0.5,2.4-0.7
	C11.9,47.4,12,47.3,12.1,47.3"/>
<path fill="#4697D2" d="M4.2,31.5c0-1.8,0.9-3.5,2.2-4.6C6.1,26.5,6,26,6,25.5c0-1,0.5-1.9,1.3-2.5c-0.8-1-1.3-2.3-1.3-3.6
	c0-3.2,2.6-5.8,5.8-5.8c0.4,0,0.7,0,1.1,0.1c0.1-2.3,1.9-4.1,4.2-4.1c0.4,0,0.8,0.1,1.1,0.2C18.4,7.1,20.6,5,23.2,5
	c0.7,0,1.3,0.1,1.9,0.4c0.7-0.3,1.3-0.7,2-1c-1-1-2.3-1.6-3.8-1.6c-2.8,0-5.2,2.1-5.5,4.9c-0.4-0.1-0.8-0.2-1.2-0.2
	c-2.5,0-4.6,2-4.6,4.6c0,0,0,0,0,0c-0.4-0.1-0.8-0.1-1.1-0.1c-3.5,0-6.3,2.8-6.3,6.3c0,1.5,0.5,2.9,1.4,4c-0.8,0.6-1.4,1.6-1.4,2.7
	c0,0.6,0.2,1.1,0.4,1.6c-1.4,1.2-2.4,2.9-2.4,4.9c0,3.4,2.7,6.1,6,6.3c0-0.2-0.1-0.5-0.1-0.7C6,36.4,4.2,34.2,4.2,31.5"/>
<path fill="#4697D2" d="M18.8,44.9c-0.7,0.5-1.4,0.9-2.2,1.2C17.4,45.8,18.1,45.4,18.8,44.9"/>
<path fill="#4697D2" d="M21.1,38.2c-0.1-0.8-0.3-1.7-0.6-2.5C20.8,36.6,21,37.4,21.1,38.2"/>
<path fill="#4697D2" d="M13.6,47C13.6,46.9,13.6,46.9,13.6,47c0.5-0.1,0.9-0.2,1.2-0.3C14.4,46.7,14,46.8,13.6,47
	C13.6,46.9,13.6,46.9,13.6,47"/>
<path fill="#4697D2" d="M16,46.3c-0.4,0.1-0.8,0.3-1.2,0.4C15.2,46.5,15.6,46.4,16,46.3"/>
<path fill="#4697D2" d="M9.3,37.8c0-0.2-0.1-0.4-0.1-0.6c-0.2,0-0.5-0.1-0.7-0.1c0,0.2,0.1,0.5,0.1,0.7c0.1,0,0.2,0,0.3,0
	C9.1,37.8,9.2,37.8,9.3,37.8"/>
<path fill="#4697D2" d="M12.1,47.3c0.1,0,0.3-0.1,0.4-0.1c0-0.1-0.1-0.1-0.1-0.2c-0.2,0.1-0.5,0.2-0.7,0.2c0,0,0,0.1,0.1,0.1
	C11.9,47.4,12,47.3,12.1,47.3"/>
<path fill="#4697D2" d="M26.1,5.9c0.5-0.3,1.1-0.5,1.7-0.7c-0.2-0.3-0.4-0.5-0.6-0.7c-0.7,0.3-1.3,0.6-2,1
	C25.5,5.5,25.8,5.7,26.1,5.9"/>
<path fill="#4697D2" d="M13.6,47C13.6,46.9,13.6,46.9,13.6,47c0-0.1,0-0.2-0.1-0.3c-0.4,0.1-0.8,0.3-1.1,0.4c0,0.1,0.1,0.1,0.1,0.2
	C12.8,47.1,13.2,47.1,13.6,47C13.5,47,13.5,47,13.6,47"/>
<path fill="#4697D2" d="M10.5,37.3c-0.2,0-0.3,0-0.5,0c-0.3,0-0.5,0-0.8-0.1c0,0.2,0.1,0.4,0.1,0.6c0.4,0,0.8-0.1,1.2-0.2
	C10.5,37.5,10.5,37.4,10.5,37.3"/>
<path fill="#4697D2" d="M26.9,6.6c0.4-0.2,0.9-0.4,1.3-0.6c-0.1-0.3-0.3-0.6-0.5-0.9c-0.6,0.2-1.1,0.5-1.7,0.7
	C26.4,6.1,26.7,6.4,26.9,6.6"/>
<path fill="#4697D2" d="M13.6,36.1c-0.2,0.2-0.4,0.3-0.6,0.4c0.6,1.2,1.9,2,3.4,2c1.1,0,2-0.4,2.7-1.1c-0.6,0.5-1.4,0.8-2.2,0.8
	C15.4,38.2,14.1,37.3,13.6,36.1"/>
<path fill="#4697D2" d="M10.5,37.3c0,0.1,0,0.2,0.1,0.4c0.7-0.2,1.4-0.5,2-0.9C11.9,37,11.2,37.2,10.5,37.3"/>
<path fill="#4697D2" d="M20.2,35.7c-0.1,0.2-0.1,0.3-0.2,0.5c0.5,2.3,0.5,4.2-0.3,6.1c-1,2.1-3.6,3.4-6.1,4.3
	c0.1,0.1,0.1,0.2,0.2,0.3c0.4-0.1,0.8-0.2,1.1-0.3c0.4-0.1,0.8-0.2,1.2-0.4c0.2-0.1,0.4-0.1,0.6-0.2c0.8-0.3,1.5-0.7,2.2-1.2
	c0.7-0.5,1.2-1.1,1.6-1.9c0.3-0.6,0.5-1.3,0.7-2.1c0.1-0.6,0.1-1.2,0.1-1.9c0-0.2,0-0.4-0.1-0.7c-0.1-0.8-0.3-1.7-0.6-2.5H20.2z"/>
<path fill="#4697D2" d="M31.1,10.4c0.6-0.3,1.3-0.4,2-0.4c2.6,0,4.7,1.9,5,4.4l0.7-0.8c-0.2-2.7-2.5-4.9-5.3-4.9
	c-0.5,0-1,0.1-1.5,0.2c-0.7-1.2-2-2-3.4-2c-0.1-0.3-0.2-0.7-0.4-1c-0.4,0.2-0.9,0.4-1.3,0.6c0.5,0.5,0.8,1,1.1,1.7
	C29.4,8.4,30.5,9.2,31.1,10.4"/>
<path fill="#1B75BC" d="M69.3,42c-0.1,0.2-0.1,0.4-0.2,0.6c0.2,0.1,0.3,0.2,0.5,0.2c0.2,0.1,0.4,0.2,0.6,0.4
	c0.2,0.2,0.4,0.3,0.6,0.5c0.1,0.1,0.1,0.1,0.2,0.2c0,0.1,0.1,0.1,0.1,0.2c0,0,0,0.1,0,0.1c0,0.1,0,0.3,0,0.4c0,0.2-0.1,0.4-0.3,0.6
	c-0.1,0.1-0.2,0.2-0.3,0.3C70,46,69,46.5,67.5,47c-0.1,0-0.1,0-0.2,0.1c-0.1,0-0.3,0.1-0.4,0.1c-0.5,0.1-1,0.3-1.5,0.4
	c-1.2,2.2-2.8,4.3-4.5,6.2c0.2,0,0.5-0.1,0.7-0.1c0.5-0.1,1-0.2,1.5-0.3c1.8-0.3,3.5-0.8,5.3-1.4c6.9-2.3,9.9-5.4,6.2-8.3
	c-1.4-1.1-3.1-1.8-5.1-2.2C69.4,41.6,69.4,41.8,69.3,42"/>
<path fill="#1B75BC" d="M13.1,48.3c-1.8,0.1-3.6,0.3-5.3,0.6c0.4-0.3,1-0.6,1.6-0.8c-1.6,0.5-3.2,1.3-4.5,2.5c2.5-1,4.8-1.6,7.6-1.9
	c0.2,0,0.4,0,0.5,0c0.1,0,0.2,0,0.3,0C13.2,48.5,13.1,48.4,13.1,48.3"/>
<path fill="#1B75BC" d="M17.8,48.7c0.2,0,0.3,0,0.5,0c0.3,0,0.7,0.1,1,0.1c0.7,0.1,1.4,0.2,2.2,0.3c1,0.1,2,0.3,3.1,0.5
	c0.7,0.1,1.3,0.2,2.1,0.4c0.5,0.1,1,0.2,1.5,0.3c0.2,0,0.5,0.1,0.8,0.1c1.8,0.3,3.7,0.7,5.9,1.2c4,0.8,7.6,1.5,10.9,1.9
	c1.1,0.1,2.2,0.3,3.2,0.4c4.1,0.4,7.7,0.4,11.2,0c0.3,0,0.5-0.1,0.8-0.1c1.7-1.8,3.3-3.9,4.5-6.2c-0.2,0-0.4,0.1-0.6,0.1
	c-3.3,0.8-7.1,1.1-10.8,1.2c-0.4,0-0.8,0-1.2,0c-0.4,0-0.8,0-1.3,0c-0.8,0-1.7,0-2.5-0.1c-0.8,0-1.6-0.1-2.4-0.1
	c-0.8-0.1-1.7-0.1-2.5-0.2c-2.3-0.2-4.5-0.5-6.5-0.8c-0.9-0.2-1.8-0.3-2.6-0.5c-0.1,0-0.2,0-0.4-0.1c-0.5-0.1-1-0.2-1.5-0.3
	c-1-0.2-1.9-0.5-2.7-0.7c-0.3-0.1-0.6-0.2-1-0.4c-0.5-0.2-1-0.5-1.5-0.7c-0.3-0.2-0.6-0.4-0.8-0.5c-0.1-0.1-0.1-0.1-0.2-0.2
	c-0.3-0.2-0.5-0.4-0.8-0.7c-0.1-0.1-0.3-0.3-0.4-0.4c-0.2-0.2-0.3-0.4-0.4-0.6c-0.5-0.8-0.7-1.6-0.7-2.6c0-0.9,0.1-1.7,0.2-2.3
	c0-0.3,0.1-0.5,0.1-0.7c0.1-0.2,0.1-0.4,0.1-0.5c0.1-0.3,0.2-0.5,0.2-0.5s0,0,0,0c0,0,0,0,0,0c0,0,0,0,0-0.1c0,0,0,0,0,0
	c0,0,0,0,0,0h-0.5c0.1,0.4,0.2,0.7,0.2,0.7s-3.2,5.7,1.6,12.6c0,0-6.5-1-13.4-0.6c0.1,0.1,0.1,0.2,0.2,0.3c0.4,0,0.9,0,1.4,0
	C15.6,48.6,16.7,48.6,17.8,48.7"/>
<path fill="#1B75BC" d="M67.3,47c-0.1,0-0.3,0.1-0.4,0.1C67,47.1,67.2,47.1,67.3,47"/>
<path fill="#1B75BC" d="M69.3,42c0.1-0.2,0.1-0.4,0.2-0.6C69.4,41.6,69.4,41.8,69.3,42"/>
<path fill="#1B75BC" d="M11.1,24.6c0,0.1,0,0.3,0,0.4c0,0.2,0,0.4-0.1,0.6c0,0,0,0,0.1,0c0.1-0.3,0.2-0.7,0.3-1
	C11.3,24.6,11.2,24.6,11.1,24.6"/>
<path fill="#1B75BC" d="M13.3,48.6c-0.1,0-0.2,0-0.3,0C13.1,48.6,13.2,48.6,13.3,48.6"/>
<path fill="#1B75BC" d="M14.6,48.6c-0.5,0-0.9,0-1.4,0C13.7,48.6,14.2,48.6,14.6,48.6"/>
<path fill="#1B75BC" d="M25.1,5.4C24.5,5.2,23.9,5,23.2,5c-2.7,0-4.9,2.1-5.1,4.7c-0.4-0.1-0.7-0.2-1.1-0.2c-2.3,0-4.1,1.8-4.2,4.1
	c-0.3-0.1-0.7-0.1-1.1-0.1c-3.2,0-5.8,2.6-5.8,5.8c0,1.4,0.5,2.7,1.3,3.6C6.5,23.5,6,24.4,6,25.4c0,0.5,0.1,1,0.4,1.5
	C5,28,4.2,29.6,4.2,31.5c0,2.7,1.8,5,4.4,5.6c-0.2-1.3-0.3-2.6-0.3-4C8.3,21.1,15.1,10.6,25.1,5.4"/>
<path fill="#1B75BC" d="M13.1,48.3c-0.2-0.4-0.4-0.7-0.6-1.1c-0.1,0-0.3,0.1-0.4,0.1c-0.1,0-0.2,0.1-0.3,0.1
	c-0.8,0.2-1.6,0.4-2.4,0.7c-0.7,0.3-1.2,0.5-1.6,0.8C9.5,48.6,11.3,48.4,13.1,48.3"/>
<path fill="#1B75BC" d="M26.5,49c-4.9-6.8-1.6-12.6-1.6-12.6s0-0.3-0.2-0.7h-4.3c0.3,0.9,0.5,1.7,0.6,2.5c0,0.2,0,0.5,0.1,0.7
	c0,0.7,0,1.3-0.1,1.9c-0.1,0.8-0.3,1.5-0.7,2.1c-0.4,0.8-1,1.4-1.6,1.9c-0.7,0.5-1.4,0.9-2.2,1.2c-0.2,0.1-0.4,0.1-0.6,0.2
	c-0.4,0.1-0.8,0.3-1.2,0.4c-0.4,0.1-0.8,0.2-1.1,0.3c0,0-0.1,0-0.1,0c0,0-0.1,0-0.1,0c-0.3,0.1-0.7,0.2-1,0.2
	c0.2,0.4,0.4,0.7,0.6,1.1C20,48,26.5,49,26.5,49"/>
<path fill="#1B75BC" d="M26.1,5.9c-0.3-0.2-0.6-0.4-1-0.5c-10,5.2-16.9,15.6-16.9,27.7c0,1.4,0.1,2.7,0.3,4c0.2,0.1,0.5,0.1,0.7,0.1
	c-0.2-1.4-0.3-2.7-0.3-4.1C8.9,21.1,15.9,10.8,26.1,5.9"/>
<path fill="#1B75BC" d="M12.1,47.3c0.1,0,0.3-0.1,0.4-0.1C12.3,47.3,12.2,47.3,12.1,47.3"/>
<path fill="#1B75BC" d="M10.5,37.3c-0.2-1.4-0.3-2.8-0.3-4.2c0-1.6,0.1-3.3,0.4-4.8c-0.5,0.4-0.9,0.9-1.1,1.5
	c-0.1-1.1,0.4-2.1,1.3-2.7c0,0,0,0,0,0c0.1-0.5,0.2-0.9,0.3-1.4c0,0,0,0-0.1,0c0-0.2,0.1-0.4,0.1-0.6c0-0.1,0-0.3,0-0.4
	c0.1,0,0.2,0,0.3,0c2.4-7.9,8.1-14.4,15.5-17.9c-0.3-0.3-0.5-0.5-0.9-0.7C15.9,10.8,8.9,21.1,8.9,33.1c0,1.4,0.1,2.8,0.3,4.1
	c0.3,0,0.5,0.1,0.8,0.1C10.2,37.3,10.3,37.3,10.5,37.3"/>
<path fill="#1B75BC" d="M13.6,47C13.5,47,13.5,47,13.6,47c-0.4,0.1-0.8,0.2-1.1,0.3C12.8,47.1,13.2,47.1,13.6,47
	C13.5,47,13.5,47,13.6,47"/>
<path fill="#1B75BC" d="M25.5,13.6c-0.1,0.1-0.3,0.1-0.4,0.2c0.2,0,0.5,0.1,0.7,0.2C25.6,13.8,25.5,13.7,25.5,13.6"/>
<path fill="#1B75BC" d="M33.6,19.3c-2.6,0-4.7-1.8-5.2-4.2c-0.7,0-1.4-0.3-2-0.7c0,0.2-0.1,0.3-0.1,0.5c-0.4-0.2-0.9-0.3-1.4-0.3
	c-1.4,0.1-2.5,1.1-2.7,2.4c-0.1-0.2-0.1-0.4-0.1-0.6c-0.1-1.1,0.5-2,1.4-2.5c-0.1,0-0.2,0-0.3,0c-0.8,0-1.6-0.2-2.4-0.5
	c-0.5,1.8-2.1,3.1-4.1,3.3c0.1,0.5,0.2,1.1,0.2,1.6c0,0.4,0,0.7-0.1,1.1c0.6,0,1.2,0.2,1.6,0.5c-0.6-0.1-1.2-0.1-1.8,0.2
	c-0.3,0.9-0.8,1.7-1.4,2.4c0,0.3,0.1,0.5,0.1,0.8c-0.1,0.1-0.2,0.1-0.3,0.2c-1.3,0.7-2,2.1-1.9,3.5c1.1,1,1.7,2.5,1.9,4
	c0.3-0.1,0.7-0.2,1.1-0.2c2,0,3.7,1.6,3.8,3.6l13.6-15.1C33.7,19.3,33.6,19.3,33.6,19.3"/>
<path fill="#1B75BC" d="M24.8,37.6c0-0.3,0.1-0.5,0.1-0.7C24.9,37.1,24.8,37.3,24.8,37.6"/>
<path fill="#1B75BC" d="M25.8,43.1c-0.2-0.2-0.3-0.4-0.4-0.6C25.5,42.7,25.6,42.9,25.8,43.1"/>
<path fill="#1B75BC" d="M19,37.4c0.4-0.3,0.7-0.7,1-1.2c0-0.1,0-0.2-0.1-0.3C19.7,36.5,19.4,37,19,37.4"/>
<path fill="#1B75BC" d="M25.3,35.8c0,0-0.1,0.2-0.2,0.5C25.2,36,25.3,35.8,25.3,35.8"/>
<polyline fill="#1B75BC" points="25.2,35.7 25.2,35.7 25.2,35.7 "/>
<polyline fill="#1B75BC" points="25.3,35.8 25.2,35.8 25.3,35.8 "/>
<path fill="#1B75BC" d="M12.5,36.7c0.1-0.1,0.3-0.1,0.4-0.2c0,0,0,0,0-0.1C12.8,36.5,12.7,36.6,12.5,36.7"/>
<path fill="#1B75BC" d="M49,48.8c-0.8,0-1.6-0.1-2.4-0.1C47.3,48.7,48.2,48.8,49,48.8"/>
<path fill="#1B75BC" d="M12.5,24.4c-0.3,0.1-0.7,0.2-1,0.2c-0.1,0.3-0.2,0.7-0.3,1c0.3,0.1,0.7,0.3,1,0.5
	C12.1,25.5,12.2,24.9,12.5,24.4"/>
<path fill="#1B75BC" d="M46.5,48.7c-0.8-0.1-1.7-0.1-2.5-0.2C44.8,48.6,45.7,48.6,46.5,48.7"/>
<path fill="#1B75BC" d="M34.9,47.2c-0.1,0-0.2,0-0.4-0.1C34.7,47.1,34.8,47.2,34.9,47.2"/>
<path fill="#1B75BC" d="M52.7,48.9c-0.4,0-0.8,0-1.2,0C51.9,48.9,52.3,48.9,52.7,48.9"/>
<path fill="#1B75BC" d="M27.2,44.4c-0.1-0.1-0.1-0.1-0.2-0.2C27,44.3,27.1,44.4,27.2,44.4"/>
<path fill="#1B75BC" d="M13.8,22.9c0.2-0.1,0.5-0.2,0.7-0.3c-0.3-1.1,0.2-2.3,1.2-2.9c0.4-0.2,0.8-0.3,1.2-0.3
	c0.1-0.3,0.1-0.7,0.1-1.1c0-0.6-0.1-1.1-0.2-1.6c1.9-0.1,3.5-1.5,4.1-3.3c0.7,0.3,1.5,0.5,2.4,0.5c0.1,0,0.2,0,0.3,0
	c0.3-0.2,0.7-0.3,1-0.3c0.1,0,0.3,0,0.4,0c0.1,0,0.3-0.1,0.4-0.2c0.1,0.1,0.2,0.2,0.3,0.3c0,0,0,0,0,0c0.3-0.8,1-1.4,1.9-1.4
	c0.5,0,0.9,0.1,1.3,0.3c-0.2,0-0.4-0.1-0.6-0.1c-1,0.1-1.7,0.8-1.9,1.7c0.6,0.4,1.3,0.6,2,0.7c0.5,2.4,2.6,4.2,5.2,4.2
	c0,0,0.1,0,0.1,0l4.4-4.9c-0.3-2.5-2.4-4.4-5-4.4c-0.7,0-1.4,0.2-2,0.4c-0.6-1.2-1.7-2-3.1-2.1c-0.2-0.6-0.6-1.2-1.1-1.7
	c-7.4,3.5-13.1,10-15.5,17.9c0.3,0,0.7-0.1,1-0.2C12.7,23.8,13.2,23.3,13.8,22.9"/>
<path fill="#1B75BC" d="M12.9,36.4C12.9,36.5,12.9,36.5,12.9,36.4c0.3-0.1,0.5-0.2,0.7-0.4c0.5,1.2,1.8,2.1,3.2,2.1
	c0.8,0,1.6-0.3,2.2-0.8c0.4-0.4,0.7-0.9,0.9-1.5c0,0.1,0,0.2,0.1,0.3c0.1-0.2,0.1-0.3,0.2-0.5H19l1.1-1.3c-0.1-2-1.8-3.6-3.8-3.6
	c-0.4,0-0.7,0.1-1.1,0.2c-0.1-1.6-0.8-3-1.9-4c0,0.4,0.1,0.8,0.3,1.1c-0.9-0.5-2-0.5-2.9,0c-0.1,0-0.1,0.1-0.2,0.1
	c-0.3,1.6-0.4,3.2-0.4,4.8c0,1.4,0.1,2.8,0.3,4.2c0.7-0.1,1.4-0.3,2.1-0.6C12.7,36.6,12.8,36.5,12.9,36.4"/>
<path fill="#1B75BC" d="M12.1,26.1c-0.3-0.2-0.6-0.3-1-0.5c-0.1,0.5-0.2,0.9-0.3,1.4c0.4-0.2,0.9-0.3,1.4-0.3
	C12.2,26.5,12.1,26.3,12.1,26.1"/>
<path fill="#1B75BC" d="M21,40.8c-0.1,0.8-0.3,1.5-0.7,2.1C20.7,42.3,20.9,41.6,21,40.8c0.1-0.6,0.1-1.2,0.1-1.9
	C21.2,39.6,21.1,40.2,21,40.8"/>
<path fill="#1B75BC" d="M15.4,22.6c0.6-0.7,1.1-1.5,1.4-2.4c0,0-0.1,0-0.1,0C15.8,20.7,15.4,21.6,15.4,22.6"/>
<path fill="#1B75BC" d="M67.3,41.8c0.1-0.3,0.2-0.5,0.2-0.8c-1.6-0.3-3.4-0.4-5.4-0.5C64,40.9,65.8,41.3,67.3,41.8"/>
<path fill="#6BC076" d="M54.5,5c2.5,0,4.6,1.8,5,4.2c0.4,0.4,0.8,0.7,1.3,1.1c1.7,0,3.2,1.1,3.8,2.6c0.4-0.1,0.9-0.2,1.4-0.2
	c3.2,0,5.8,2.6,5.8,5.8c0,1.6-0.7,3.1-1.8,4.2c1,0.5,1.7,1.5,1.7,2.7c0,0.5-0.1,1-0.4,1.5c1.3,1.1,2.2,2.7,2.2,4.6
	c0,2.2-1.3,4.2-3.1,5.2c0,0.3-0.1,0.7-0.1,1c2.8-0.7,4.8-3.2,4.8-6.1c0-2-0.9-3.8-2.4-4.9c0.3-0.5,0.4-1,0.4-1.6
	c0-1.3-0.8-2.4-1.9-3c1.2-1.1,1.9-2.7,1.9-4.5c0-3.5-2.8-6.3-6.3-6.3c-0.5,0-1,0.1-1.5,0.2c-0.7-1.6-2.3-2.8-4.2-2.8
	c-0.4,0-0.8,0.1-1.2,0.2c0-0.1,0-0.3,0-0.4c0-3.1-2.5-5.6-5.5-5.6c-1.3,0-2.5,0.5-3.5,1.2c0.8,0.3,1.6,0.7,2.4,1.1
	C53.7,5.1,54.1,5,54.5,5"/>
<path fill="#6BC076" d="M68.8,37.2c0,0.2-0.1,0.4-0.1,0.6c0,0,0,0,0.1,0c0.5,0,1-0.1,1.5-0.2c0-0.3,0.1-0.7,0.1-1
	C69.9,36.9,69.4,37.1,68.8,37.2"/>
<path fill="#6BC076" d="M50.9,4.2c0.4,0.5,0.7,1,1.1,1.5c0.4-0.2,0.9-0.4,1.3-0.5c-0.8-0.4-1.6-0.7-2.4-1.1
	C50.9,4.2,50.9,4.2,50.9,4.2C50.9,4.2,50.9,4.2,50.9,4.2"/>
<path fill="#6BC076" d="M59.6,10.5c0.4-0.1,0.7-0.2,1.1-0.2c0,0,0,0,0.1,0c-0.4-0.4-0.8-0.8-1.3-1.1c0.1,0.3,0.1,0.6,0.1,0.9
	C59.6,10.3,59.6,10.4,59.6,10.5"/>
<path fill="#6BC076" d="M68.3,37.8c0.1,0,0.3,0,0.4,0c0-0.2,0.1-0.4,0.1-0.6c-0.1,0-0.3,0-0.4,0.1C68.4,37.4,68.3,37.6,68.3,37.8"/>
<path fill="#6BC076" d="M45.4,10c0.1,0,0.2,0,0.3,0c-0.2-0.6-0.6-1.1-0.9-1.6c0-0.1-0.1-0.1-0.1-0.2c0,0-0.1,0-0.1,0
	c-3.1,0-5.6,2.4-5.8,5.4l1.2,1.4C40.3,12.2,42.6,10,45.4,10"/>
<path fill="#6BC076" d="M65.2,36.7c0.9,0.6,2,1,3.1,1.1c0-0.2,0.1-0.4,0.1-0.6c-0.2,0-0.5,0-0.7,0C66.8,37.3,65.9,37.1,65.2,36.7"/>
<path fill="#6BC076" d="M60.9,38.2c-0.9,0-1.6-0.3-2.2-0.8c0.7,0.7,1.7,1.2,2.7,1.2c1.5,0,2.7-0.8,3.4-2c-0.2-0.1-0.4-0.3-0.6-0.4
	C63.6,37.3,62.3,38.2,60.9,38.2"/>
<path fill="#6BC076" d="M48.5,9.9c0.3-0.2,0.5-0.3,0.8-0.4c0-0.2,0.1-0.4,0.1-0.5c-0.2-0.4-0.4-0.8-0.6-1.2C48.6,7.9,48.3,8,48,8.2
	C48.3,8.7,48.5,9.3,48.5,9.9"/>
<path fill="#6BC076" d="M58.6,46.9c-0.3,0-0.6,0-0.9,0.1C58,46.9,58.3,46.9,58.6,46.9"/>
<path fill="#6BC076" d="M56.8,47c-0.3,0-0.5,0-0.8,0C56.3,47.1,56.6,47,56.8,47"/>
<path fill="#6BC076" d="M54.9,47.1c-0.2,0-0.4,0-0.7,0C54.5,47.1,54.7,47.1,54.9,47.1"/>
<path fill="#6BC076" d="M52.3,47.2c0.1,0,0.1,0,0.2,0C52.4,47.2,52.3,47.2,52.3,47.2L52.3,47.2"/>
<path fill="#6BC076" d="M57.2,35.7c-1.7,5,0.4,9.2,1.7,11.2c0.4,0,0.8-0.1,1.2-0.1c0,0,0,0,0,0c-1.5-1.9-3.9-5.8-2.6-11
	c0,0,0,0,0-0.1H57.2z"/>
<path fill="#2BB673" d="M44.5,19.8C44.5,19.8,44.5,19.8,44.5,19.8L44.5,19.8L44.5,19.8z"/>
<path fill="#2BB673" d="M66.5,25c0-0.4,0.1-0.8,0.2-1.2c-3.3-0.1-6-2.7-6.1-6c-2.2-0.3-3.9-2-4-4.2c-0.7,0.3-1.4,0.5-2.2,0.5
	c-0.3,0-0.7,0-1-0.1c-0.3,0.4-0.6,0.7-1,1v0.7h-1.6c-0.2,0-0.4,0.1-0.6,0.1c0,0.1-0.1,0.2-0.1,0.3h1.6v11.9l5.9,6.5
	c0.1-2,1.8-3.6,3.8-3.6c0.4,0,0.7,0.1,1.1,0.2c0.1-2,1.2-3.7,2.8-4.8c0.2-1-0.3-2-1.2-2.6c-0.2-0.1-0.4-0.2-0.6-0.3
	c0.5,0,1.1,0.1,1.6,0.4c0.7,0.5,1.1,1.2,1.2,2c0.1-0.1,0.3-0.1,0.4-0.2C66.6,25.4,66.5,25.2,66.5,25"/>
<path fill="#2BB673" d="M58.9,46.9C58.9,46.9,58.9,46.9,58.9,46.9c-0.1,0-0.2,0-0.3,0C58.7,46.9,58.8,46.9,58.9,46.9"/>
<path fill="#2BB673" d="M54.3,47.1c-0.6,0-1.2,0-1.8,0C53.1,47.2,53.7,47.2,54.3,47.1"/>
<path fill="#2BB673" d="M64.8,36.5c0.1,0.1,0.3,0.1,0.4,0.2C65,36.6,64.9,36.5,64.8,36.5C64.8,36.5,64.8,36.5,64.8,36.5"/>
<path fill="#2BB673" d="M52.8,36.4c0,0,0-0.3,0.1-0.7h-0.4c0,0.1,0,0.1,0,0.1s2.4,5.3-1.9,11.3c0.6,0,1.1,0,1.7,0
	C55.5,41.1,52.8,36.4,52.8,36.4"/>
<path fill="#2BB673" d="M57.6,35.7C57.6,35.7,57.5,35.7,57.6,35.7c0.2,0.7,0.6,1.3,1.1,1.7c-0.4-0.5-0.8-1-1-1.7H57.6z"/>
<path fill="#2BB673" d="M56,47.1c-0.4,0-0.7,0-1.1,0C55.3,47.1,55.6,47.1,56,47.1"/>
<path fill="#2BB673" d="M57.8,47c-0.3,0-0.6,0-0.9,0.1C57.1,47,57.4,47,57.8,47"/>
<path fill="#2BB673" d="M70.6,33.1c0,1.2-0.1,2.4-0.2,3.5c1.9-1,3.1-2.9,3.1-5.2c0-1.8-0.9-3.5-2.2-4.6c0.2-0.4,0.4-0.9,0.4-1.4
	c0-1.2-0.7-2.3-1.7-2.7c1.1-1.1,1.8-2.5,1.8-4.2c0-3.2-2.6-5.8-5.8-5.8c-0.5,0-0.9,0.1-1.4,0.2c-0.6-1.5-2.1-2.5-3.8-2.6
	C66.8,16.1,70.6,24.1,70.6,33.1"/>
<path fill="#2BB673" d="M54.5,5c-0.4,0-0.8,0.1-1.2,0.1c2.2,1.1,4.3,2.5,6.2,4.1C59.1,6.9,57,5,54.5,5"/>
<path fill="#2BB673" d="M68.7,28.3c0.3,0.6,0.4,1.3,0.2,2c0.1,0.9,0.1,1.8,0.1,2.8c0,1.4-0.1,2.8-0.3,4.1c0.6-0.1,1.1-0.3,1.6-0.6
	c0.1-1.2,0.2-2.3,0.2-3.5c0-9-3.8-17-9.9-22.7c0,0,0,0-0.1,0c-0.4,0-0.8,0.1-1.1,0.2c0-0.1,0-0.2,0-0.4c0-0.3,0-0.6-0.1-0.9
	c-1.9-1.6-4-3-6.2-4.1c-0.5,0.1-0.9,0.3-1.3,0.5c0.1,0.1,0.2,0.3,0.3,0.4C60.9,10.3,67.1,18.5,68.7,28.3"/>
<path fill="#2BB673" d="M52.8,7.1c7.8,4,13.6,11.5,15.4,20.4c0.2,0.3,0.4,0.5,0.5,0.8c-1.6-9.8-7.8-18-16.4-22.2c0,0,0,0,0,0
	C52.5,6.4,52.6,6.7,52.8,7.1"/>
<path fill="#2BB673" d="M68.9,30.3c-0.1,0.3-0.2,0.6-0.3,0.9c0,0.6,0.1,1.2,0.1,1.9c0,1.4-0.1,2.8-0.3,4.2c0.1,0,0.3,0,0.4-0.1
	c0.2-1.3,0.3-2.7,0.3-4.1C69.1,32.1,69,31.2,68.9,30.3"/>
<path fill="#2BB673" d="M48.5,9.9c0,0.3-0.1,0.7-0.2,1.1c-0.5,1.3-2.1,2.3-3.4,2.4c1.3-1.3,1.3-2.4,0.9-3.4c-0.1,0-0.2,0-0.3,0
	c-2.8,0-5.2,2.2-5.3,5l4.3,4.8c0,0,0.1,0,0.1,0v-3.9h5.6c0-0.1,0.1-0.2,0.1-0.3c0.2,0,0.4,0,0.6-0.1h-6.7h-0.4v-0.7v-0.5v0h3.6h5.1
	v0.5c0.4-0.3,0.7-0.6,1-1c0.3,0.1,0.6,0.1,1,0.1c0.8,0,1.5-0.2,2.2-0.5c0.1,2.2,1.8,4,4,4.2c0.1,3.3,2.8,6,6.1,6
	c-0.1,0.4-0.2,0.8-0.2,1.2c0,0.2,0,0.4,0.1,0.6c-0.1,0-0.3,0.1-0.4,0.2c0,0.2,0,0.5,0,0.7c0.5,0.1,0.9,0.2,1.3,0.5
	c0.2,0.2,0.5,0.4,0.7,0.6c-1.7-8.9-7.5-16.4-15.4-20.4c0.4,0.9,0.5,2,0.1,3.1c-0.7,1.7-2.8,3-4.6,3.2C50,11.7,50,10.3,49.5,9
	c0,0.2-0.1,0.4-0.1,0.5C49.1,9.6,48.8,9.8,48.5,9.9 M55,10.4c1,0.2,1.7,1,1.9,2c0.2,0,0.4,0,0.7,0c1.3,0.2,2.3,1.3,2.4,2.5
	c0.4-0.2,0.8-0.2,1.3-0.1c1.3,0.2,2.1,1.4,1.9,2.7c0,0,0,0,0,0c-0.3-0.9-1-1.6-2-1.7c-0.5-0.1-1,0-1.4,0.2c-0.2-1.3-1.3-2.4-2.6-2.6
	c-0.4-0.1-0.7,0-1,0c0-0.1,0-0.2,0.1-0.2c0.2-1.2-0.6-2.4-1.8-2.6c-0.2,0-0.4,0-0.6,0C54.1,10.4,54.6,10.3,55,10.4"/>
<path fill="#2BB673" d="M68,32.1c0.6-1.6,0-3.4-1.4-4.3c-0.5-0.3-1.1-0.5-1.6-0.6c0.2-0.3,0.3-0.6,0.3-0.9c-1.6,1.1-2.6,2.8-2.8,4.8
	c-0.3-0.1-0.7-0.2-1.1-0.2c-2,0-3.7,1.6-3.8,3.6l1.1,1.3h-1c0.2,0.6,0.5,1.2,1,1.7c0.6,0.5,1.4,0.8,2.2,0.8c1.4,0,2.7-0.9,3.2-2.1
	c0.2,0.2,0.4,0.3,0.6,0.4c0,0,0,0,0-0.1c0.1,0.1,0.2,0.2,0.4,0.3c0.8,0.4,1.6,0.6,2.5,0.6c0.2,0,0.5,0,0.7,0
	c0.2-1.4,0.3-2.7,0.3-4.2c0-0.6,0-1.2-0.1-1.9c0,0.1-0.1,0.2-0.2,0.3C68.3,31.7,68.2,31.9,68,32.1"/>
<path fill="#2BB673" d="M57.5,35.7C57.5,35.7,57.5,35.7,57.5,35.7C57.5,35.7,57.6,35.7,57.5,35.7L57.5,35.7z"/>
<path fill="#2BB673" d="M57.2,35.7h-4.3c-0.1,0.4-0.1,0.7-0.1,0.7s2.7,4.8-0.5,10.8c0.1,0,0.1,0,0.2,0c0.6,0,1.2,0,1.8,0
	c0.2,0,0.4,0,0.7,0c0.4,0,0.7,0,1.1,0c0.3,0,0.5,0,0.8,0c0.3,0,0.6,0,0.9-0.1c0.3,0,0.6,0,0.9-0.1c0.1,0,0.2,0,0.3,0
	C57.6,44.9,55.5,40.7,57.2,35.7"/>
<path fill="#6BC076" d="M65,23.8c-0.5-0.3-1-0.4-1.6-0.4c0.2,0.1,0.4,0.2,0.6,0.3c0.9,0.6,1.3,1.6,1.2,2.6c0.3-0.2,0.6-0.4,1-0.5
	C66.1,25,65.7,24.2,65,23.8"/>
<path fill="#6BC076" d="M68.7,28.3c0.1,0.7,0.2,1.3,0.2,2C69.1,29.6,69,28.9,68.7,28.3"/>
<path fill="#6BC076" d="M68.6,31.2c0.2-0.3,0.3-0.6,0.3-0.9c-0.1-0.7-0.1-1.3-0.2-2c-0.1-0.3-0.3-0.6-0.5-0.8
	C68.4,28.7,68.5,30,68.6,31.2"/>
<path fill="#6BC076" d="M67.5,26.9c-0.4-0.3-0.9-0.4-1.3-0.5c0-0.2,0.1-0.5,0-0.7c-0.3,0.1-0.7,0.3-1,0.5c-0.1,0.3-0.2,0.6-0.3,0.9
	c0.6,0.1,1.1,0.2,1.6,0.6c1.5,0.9,2,2.7,1.4,4.3c0.2-0.2,0.3-0.4,0.5-0.6c0.1-0.1,0.1-0.2,0.2-0.3c-0.1-1.3-0.2-2.5-0.5-3.7
	C68,27.3,67.7,27.1,67.5,26.9"/>
<path fill="#6BC076" d="M54.3,10.6c1.2,0.2,2,1.3,1.8,2.6c0,0.1,0,0.2-0.1,0.2c0.3-0.1,0.7-0.1,1,0c1.4,0.2,2.4,1.3,2.6,2.6
	c0.4-0.2,0.9-0.3,1.4-0.2c1,0.2,1.7,0.8,2,1.7c0,0,0,0,0,0c0.2-1.3-0.7-2.5-1.9-2.7c-0.4-0.1-0.9,0-1.3,0.1
	c-0.1-1.3-1.1-2.3-2.4-2.5c-0.2,0-0.4,0-0.7,0c-0.1-1-0.8-1.8-1.9-2c-0.5-0.1-1,0-1.4,0.2C53.9,10.6,54.1,10.6,54.3,10.6"/>
<path fill="#4697D2" d="M22.2,16.5c0,0.2,0.1,0.4,0.1,0.6c0.2-1.3,1.3-2.4,2.7-2.4c0.5,0,0.9,0.1,1.4,0.3c0-0.2,0-0.3,0.1-0.5
	c-0.2-0.2-0.4-0.3-0.6-0.5c-0.2-0.1-0.5-0.1-0.7-0.2c-0.5,0.2-0.9,0.2-1.4,0.3C22.7,14.4,22.1,15.4,22.2,16.5"/>
<path fill="#4697D2" d="M28.3,12.7c0.2,0,0.4,0,0.6,0.1c-0.4-0.2-0.8-0.4-1.3-0.3c-0.9,0.1-1.6,0.6-1.9,1.4c0,0,0,0,0,0
	c0.2,0.2,0.4,0.4,0.6,0.5C26.6,13.5,27.3,12.8,28.3,12.7"/>
<path fill="#4697D2" d="M24.6,13.7c-0.4,0-0.7,0.1-1,0.3c0.5,0,1-0.1,1.4-0.3C24.9,13.7,24.8,13.7,24.6,13.7"/>
<path fill="#4697D2" d="M10.8,27c-1,0.6-1.5,1.6-1.3,2.7c0.2-0.6,0.6-1.1,1.1-1.5C10.7,27.8,10.7,27.4,10.8,27
	C10.8,27,10.8,27,10.8,27"/>
<path fill="#4697D2" d="M15.2,23.5c0.1-0.1,0.2-0.1,0.3-0.2c-0.1-0.3-0.1-0.5-0.1-0.8c-0.8,0.9-1.8,1.5-3,1.8
	c-0.3,0.5-0.4,1.1-0.3,1.7c0.5,0.3,0.9,0.6,1.2,0.9C13.3,25.6,13.9,24.2,15.2,23.5"/>
<path fill="#4697D2" d="M18.6,19.9c-0.5-0.4-1-0.5-1.6-0.5c0,0.3-0.1,0.5-0.2,0.7C17.4,19.9,18,19.8,18.6,19.9"/>
<path fill="#4697D2" d="M13.6,28.1c-0.1-0.4-0.2-0.7-0.3-1.1c-0.4-0.4-0.8-0.7-1.2-0.9c0,0.2,0,0.4,0.1,0.6c-0.5,0-1,0.1-1.4,0.3
	c-0.1,0.4-0.2,0.8-0.2,1.3c0.1,0,0.1-0.1,0.2-0.1C11.7,27.6,12.8,27.7,13.6,28.1"/>
<path fill="#4697D2" d="M15.4,22.6c0-0.9,0.4-1.9,1.3-2.4c0,0,0.1,0,0.1,0c0.1-0.2,0.1-0.5,0.2-0.7c-0.4,0-0.8,0.1-1.2,0.3
	c-1,0.6-1.5,1.8-1.2,2.9c-0.2,0.1-0.5,0.2-0.7,0.3c-0.6,0.3-1.1,0.9-1.3,1.4C13.6,24.1,14.6,23.4,15.4,22.6"/>
<path fill="#1B75BC" d="M67.5,47c-0.1,0-0.1,0-0.2,0.1C67.4,47,67.4,47,67.5,47"/>
<path fill="#1B75BC" d="M69.6,42.8c0.2,0.1,0.4,0.3,0.6,0.4C70,43,69.8,42.9,69.6,42.8"/>
<path fill="#1B75BC" d="M71,43.9c0,0.1,0.1,0.1,0.1,0.2C71.1,44,71,44,71,43.9"/>
<path fill="#1B75BC" d="M69.6,42.8c-0.2-0.1-0.3-0.2-0.5-0.2C69.3,42.6,69.5,42.7,69.6,42.8"/>
<path fill="#1B75BC" d="M19.4,48.9c0.7,0.1,1.4,0.2,2.2,0.3C20.8,49,20.1,49,19.4,48.9"/>
<path fill="#1B75BC" d="M17.8,48.7c-1.1-0.1-2.2-0.1-3.2-0.1C15.6,48.6,16.7,48.6,17.8,48.7"/>
<path fill="#1B75BC" d="M18.3,48.8c0.3,0,0.7,0.1,1,0.1C19,48.8,18.7,48.8,18.3,48.8"/>
<path fill="#1B75BC" d="M21.6,49.2c1,0.1,2,0.3,3.1,0.5C23.6,49.4,22.6,49.3,21.6,49.2"/>
<path fill="#1B75BC" d="M26.7,50c0.5,0.1,1,0.2,1.5,0.3C27.7,50.1,27.2,50.1,26.7,50"/>
<path fill="#2BB673" d="M72.7,52.1c0,0-3.9,2.3-11.5,3.2c-0.9,0.9-1.8,1.7-2.8,2.5C63.9,57.2,68.8,55.6,72.7,52.1"/>
<path fill="#2BB673" d="M0,59.1c0,0,2.4-6.4,15.6-6c-0.7-0.9-1.4-1.8-2.1-2.7C5.5,50.6,0.5,53,0,59.1"/>
<path fill="#2BB673" d="M14.4,50.4c-0.3,0-0.6,0-0.9,0c0.6,0.9,1.3,1.9,2.1,2.7c0.3,0,0.7,0,1.1,0.1C15.8,52.3,15.1,51.4,14.4,50.4"
	/>
<path fill="#2BB673" d="M55.8,58c0.9,0,1.7-0.1,2.6-0.2c1-0.8,1.9-1.6,2.8-2.5c-0.7,0.1-1.5,0.2-2.3,0.2
	C57.9,56.5,56.9,57.3,55.8,58"/>
<path fill="#2BB673" d="M54.7,58.1c0.4,0,0.8,0,1.1,0c1.1-0.7,2.1-1.5,3.1-2.4c-0.3,0-0.6,0-0.9,0.1C57,56.5,55.8,57.3,54.7,58.1"/>
<path fill="#2BB673" d="M15.9,50.4c-0.5,0-1,0-1.5,0c0.7,1,1.4,1.9,2.2,2.8c0.5,0,1.1,0.1,1.7,0.1C17.4,52.4,16.6,51.4,15.9,50.4"/>
<path fill="#2BB673" d="M40.3,54.3c-8-1.7-16.1-3.4-22.5-3.8c-0.6,0-1.3-0.1-1.9-0.1c0.8,1,1.6,2,2.4,2.9c1.2,0.1,2.4,0.3,3.8,0.5
	c10.9,1.8,22.5,4.5,32.6,4.2c1.2-0.7,2.3-1.5,3.4-2.4C53.2,56,47.3,55.7,40.3,54.3"/>
<rect x="34.3" y="30.8" fill="#929496" width="3.8" height="3.8"/>
<rect x="40" y="30.8" fill="#929496" width="3.8" height="3.8"/>
<rect x="34.3" y="36.1" fill="#929496" width="3.8" height="3.8"/>
<rect x="40" y="36.1" fill="#929496" width="3.8" height="3.8"/>
<path fill="#BCBEC0" d="M49.5,2c-0.3-0.7,0-1.2,0.5-2c-1.9,0.6-2.6,1.7-2.8,2.9c1.2,0.3,2.4,0.7,3.6,1.2C50.3,3.4,49.8,2.8,49.5,2"
	/>
<path fill="#BCBEC0" d="M47.2,4.2c1,0.3,1.9,0.6,2.8,0.9c0.3-0.3,0.5-0.6,0.9-0.9c0,0-0.1-0.1-0.1-0.1c-1.2-0.5-2.4-0.9-3.6-1.2
	C47.1,3.3,47.1,3.7,47.2,4.2"/>
<path fill="#BCBEC0" d="M46.2,3.3c-0.3,0.1-0.6,0.2-0.9,0.4c0.2,0,0.4,0.1,0.6,0.1C46,3.7,46.1,3.5,46.2,3.3"/>
<path fill="#BCBEC0" d="M49.6,5.7c0.1-0.2,0.2-0.4,0.4-0.6c-0.9-0.4-1.8-0.7-2.8-0.9c0,0.3,0.1,0.5,0.2,0.8
	C48.1,5.2,48.9,5.4,49.6,5.7"/>
<path fill="#BCBEC0" d="M44.6,4.3c0.4,0.1,0.8,0.1,1.2,0.2c0-0.2,0-0.5,0.2-0.7c-0.2,0-0.4-0.1-0.6-0.1C45,3.9,44.7,4.1,44.6,4.3"/>
<path fill="#BCBEC0" d="M48.9,7.8C48.9,7.8,48.9,7.8,48.9,7.8C49,7,49.3,6.3,49.6,5.7c-0.7-0.3-1.5-0.5-2.2-0.7
	c0.2,0.7,0.5,1.3,0.9,1.8C48.4,7.1,48.7,7.4,48.9,7.8"/>
<path fill="#BCBEC0" d="M44.8,8.2c0.9,0,1.7,0.2,2.4,0.6c0.2-0.3,0.5-0.5,0.8-0.7C48,8.1,48,8,47.9,7.9c-0.3-0.5-0.7-1-1-1.4
	c-0.4-0.5-0.8-1-1.1-1.7c0-0.1-0.1-0.2-0.1-0.3c-0.4-0.1-0.8-0.2-1.2-0.2C43.6,5.5,44.2,7.2,44.8,8.2"/>
<path fill="#BCBEC0" d="M52,5.7c-0.3-0.5-0.7-1-1.1-1.5c0,0,0,0,0,0c-0.3,0.3-0.6,0.6-0.9,0.9c0.6,0.2,1.2,0.5,1.7,0.7
	C51.8,5.8,51.9,5.7,52,5.7"/>
<path fill="#BCBEC0" d="M51.1,6.3c0.2-0.2,0.4-0.3,0.6-0.4c-0.6-0.3-1.1-0.5-1.7-0.7c-0.1,0.2-0.3,0.4-0.4,0.6
	C50.1,5.9,50.6,6.1,51.1,6.3"/>
<path fill="#BCBEC0" d="M48.9,7.8c0.2,0.4,0.4,0.8,0.6,1.2c0.3-1.1,0.8-2,1.6-2.7c-0.5-0.2-1-0.4-1.5-0.6C49.3,6.3,49,7,48.9,7.8
	C48.9,7.8,48.9,7.8,48.9,7.8"/>
<path fill="#BCBEC0" d="M45.8,10c0.7,0,1.4,0.2,2,0.5c0.2-0.2,0.5-0.4,0.7-0.6c0-0.7-0.2-1.3-0.5-1.8c-0.3,0.2-0.6,0.4-0.8,0.7
	c-0.7-0.4-1.6-0.6-2.4-0.6c0,0.1,0.1,0.1,0.1,0.2C45.2,8.9,45.5,9.4,45.8,10"/>
<path fill="#BCBEC0" d="M52.3,6.1C52.2,6,52.1,5.8,52,5.7c-0.1,0-0.2,0.1-0.3,0.2C51.9,5.9,52.1,6,52.3,6.1"/>
<path fill="#BCBEC0" d="M52.3,6.1C52.3,6.1,52.3,6.1,52.3,6.1c-0.2-0.1-0.4-0.2-0.6-0.3c-0.2,0.1-0.4,0.3-0.6,0.4
	c0.6,0.2,1.1,0.5,1.6,0.8C52.6,6.7,52.5,6.4,52.3,6.1"/>
<path fill="#BCBEC0" d="M44.9,13.4c1.3-0.1,2.9-1.1,3.4-2.4c0.2-0.4,0.2-0.7,0.2-1.1c-0.3,0.2-0.5,0.4-0.7,0.6
	c-0.6-0.3-1.3-0.5-2-0.5C46.2,11,46.2,12.1,44.9,13.4"/>
<path fill="#BCBEC0" d="M49.5,9c0.5,1.3,0.5,2.8-1.2,4.4c1.8-0.2,3.9-1.5,4.6-3.2c0.5-1.2,0.3-2.2,0-3.1c-0.5-0.3-1.1-0.5-1.6-0.8
	C50.3,7,49.7,7.9,49.5,9"/>
<path fill="#1B75BC" d="M94.4,39.9c-1.9,0-3.7-0.2-5.3-0.7c-1.6-0.5-3-1-4.2-1.7L83.5,39h-1.9l-0.3-11.2h1.9c0.4,1.1,1,2.2,1.6,3.4
	c0.7,1.2,1.4,2.2,2.3,3.2c0.9,1,1.9,1.8,3,2.4c1.1,0.6,2.4,0.9,3.8,0.9c2,0,3.5-0.5,4.5-1.5c1.1-1,1.6-2.2,1.6-3.7
	c0-1.2-0.4-2.2-1.3-3c-0.9-0.8-2.3-1.5-4.2-2.1c-1.2-0.4-2.3-0.8-3.4-1.1s-2-0.7-2.9-1c-2.1-0.8-3.6-2-4.6-3.6
	c-1-1.5-1.5-3.3-1.5-5.2c0-1.2,0.3-2.4,0.8-3.5c0.5-1.1,1.3-2.1,2.3-3c1-0.8,2.2-1.5,3.7-2c1.5-0.5,3.1-0.8,4.9-0.8
	c1.7,0,3.3,0.2,4.8,0.7c1.5,0.5,2.7,1,3.5,1.4l1.3-1.3h1.9l0.2,10.6h-1.9c-0.4-1.1-0.9-2.3-1.5-3.5c-0.6-1.2-1.2-2.2-1.9-3
	c-0.7-0.8-1.5-1.5-2.5-2c-0.9-0.5-2-0.8-3.3-0.8c-1.6,0-2.9,0.4-3.8,1.3c-1,0.9-1.5,2-1.5,3.3c0,1.2,0.4,2.3,1.3,3
	c0.9,0.8,2.2,1.5,4,2.1c1.1,0.4,2.2,0.7,3.3,1.1c1.1,0.4,2.1,0.7,3,1c2.1,0.8,3.7,1.9,4.8,3.4c1.1,1.4,1.6,3.2,1.6,5.3
	c0,1.3-0.3,2.6-0.9,3.9c-0.6,1.3-1.5,2.3-2.5,3.1c-1.2,0.9-2.5,1.6-4,2.1C98.3,39.6,96.5,39.9,94.4,39.9"/>
<path fill="#1B75BC" d="M131.6,19.7h-1.4c-0.4-1-1-2-1.8-3c-0.9-1-1.7-1.6-2.6-1.8c-0.4-0.1-0.9-0.1-1.5-0.2c-0.7,0-1.2,0-1.6,0
	h-3.8v10h2.7c0.7,0,1.3-0.1,1.8-0.2c0.5-0.2,1-0.5,1.5-0.9c0.3-0.3,0.6-0.8,0.9-1.5c0.3-0.7,0.5-1.3,0.6-1.8h1.4v10.8h-1.4
	c-0.1-0.5-0.3-1.2-0.6-1.9c-0.3-0.8-0.6-1.3-0.9-1.6c-0.4-0.4-0.9-0.7-1.4-0.9c-0.5-0.2-1.2-0.2-1.9-0.2h-2.7v7.5
	c0,0.8,0.1,1.4,0.2,1.9c0.1,0.5,0.3,0.8,0.6,1.1c0.3,0.2,0.7,0.4,1.3,0.5c0.5,0.1,1.3,0.1,2.2,0.1c0.4,0,0.9,0,1.5,0
	c0.6,0,1.1,0,1.6-0.1c0.5-0.1,1-0.2,1.4-0.3c0.4-0.1,0.8-0.3,1-0.5c0.6-0.6,1.2-1.5,2-2.7c0.7-1.2,1.2-2.1,1.4-2.8h1.3l-0.5,8.1
	h-24.3v-1.4c0.3,0,0.8-0.1,1.4-0.1c0.6-0.1,1-0.2,1.2-0.3c0.5-0.2,0.8-0.4,0.9-0.7c0.2-0.3,0.2-0.7,0.2-1.1V17
	c0-0.4-0.1-0.8-0.2-1.1c-0.1-0.3-0.5-0.5-1-0.8c-0.3-0.1-0.8-0.3-1.3-0.4c-0.6-0.1-1-0.2-1.3-0.2v-1.4h23V19.7z"/>
<path fill="#1B75BC" d="M148.8,39.8c-1.9,0-3.7-0.3-5.3-0.9c-1.7-0.6-3.1-1.5-4.3-2.7c-1.2-1.1-2.2-2.6-2.9-4.3
	c-0.7-1.7-1-3.5-1-5.6c0-2,0.4-3.9,1.1-5.6c0.7-1.7,1.7-3.2,3-4.5c1.2-1.2,2.7-2.2,4.5-2.9c1.7-0.7,3.6-1,5.6-1
	c1.4,0,2.7,0.2,3.9,0.5c1.2,0.4,2.2,0.7,3,1.2l1.1-1h1.6l0.2,9.5h-1.6c-0.9-2.9-2-5-3.3-6.4c-1.3-1.4-2.8-2-4.7-2c-2.3,0-4,1-5.2,3
	c-1.2,2-1.8,4.9-1.8,8.5c0,2.1,0.2,3.8,0.6,5.3s0.9,2.6,1.6,3.5c0.7,0.9,1.5,1.6,2.5,2c1,0.4,2,0.7,3.2,0.7c1.7,0,3.2-0.5,4.6-1.4
	c1.3-0.9,2.5-2.3,3.6-4.2l1.6,1c-0.5,1.1-1.1,2-1.8,2.9c-0.7,0.8-1.4,1.6-2.3,2.2c-1,0.7-2,1.2-3.2,1.6
	C151.8,39.6,150.4,39.8,148.8,39.8"/>
<path fill="#1B75BC" d="M185.6,16c1.3,1.2,2.3,2.6,3,4.2c0.7,1.7,1.1,3.5,1.1,5.7c0,1.9-0.3,3.7-1,5.4c-0.6,1.7-1.5,3.2-2.7,4.4
	c-1.3,1.3-2.7,2.3-4.4,3c-1.7,0.7-3.7,1.1-6.1,1.1c-1.9,0-3.7-0.3-5.4-0.9c-1.7-0.6-3.2-1.5-4.4-2.7c-1.3-1.2-2.3-2.6-3-4.2
	c-0.7-1.7-1.1-3.5-1.1-5.5c0-2.1,0.4-4,1.1-5.8s1.7-3.2,3-4.4c1.3-1.2,2.7-2.1,4.5-2.8c1.7-0.7,3.6-1,5.5-1c1.9,0,3.8,0.3,5.5,1
	C182.9,14,184.3,14.9,185.6,16 M180.9,34.6c0.5-1.1,0.9-2.4,1.2-3.8c0.2-1.4,0.4-3,0.4-4.8c0-1.5-0.1-3-0.3-4.4
	c-0.2-1.4-0.6-2.7-1.1-3.8c-0.5-1.1-1.2-2-2.1-2.7c-0.9-0.7-1.9-1-3.2-1c-2.2,0-3.9,1-5,3.1c-1.1,2.1-1.7,5-1.7,8.9
	c0,1.6,0.1,3.2,0.4,4.6c0.2,1.4,0.6,2.7,1.2,3.8c0.5,1.1,1.2,1.9,2.1,2.5c0.8,0.6,1.9,0.9,3.1,0.9c1.2,0,2.2-0.3,3.1-0.9
	C179.7,36.5,180.4,35.6,180.9,34.6"/>
<path fill="#1B75BC" d="M220,14.5c-0.3,0-0.8,0.1-1.5,0.2c-0.6,0.1-1.2,0.3-1.7,0.7c-0.5,0.3-0.8,0.9-1,1.7c-0.2,0.8-0.3,2-0.3,3.5
	v18.5h-3.3l-16.2-20.1v12.2c0,1.5,0.1,2.7,0.3,3.4c0.2,0.8,0.5,1.4,1,1.7c0.3,0.3,0.9,0.5,1.6,0.7c0.7,0.2,1.3,0.3,1.7,0.4V39h-11.1
	v-1.4c0.5,0,1-0.1,1.6-0.3c0.6-0.1,1.1-0.4,1.5-0.6c0.5-0.4,0.8-0.9,1-1.6c0.2-0.7,0.3-1.9,0.3-3.6V19.2c0-0.6-0.1-1.2-0.3-1.7
	c-0.2-0.5-0.5-1-0.9-1.4c-0.4-0.4-0.9-0.7-1.5-1c-0.6-0.2-1.2-0.4-1.9-0.6v-1.5h9.8l14.2,17.5v-9.8c0-1.6-0.1-2.7-0.3-3.5
	c-0.2-0.8-0.5-1.3-1-1.7c-0.4-0.3-0.9-0.5-1.6-0.7c-0.7-0.2-1.3-0.3-1.7-0.4v-1.4H220V14.5z"/>
<path fill="#1B75BC" d="M244.6,15.8c1.6,1,2.9,2.4,3.8,4.1s1.5,3.8,1.5,6.3c0,2.2-0.4,4.1-1.3,5.7c-0.9,1.6-2,3-3.5,4
	c-1.5,1-3.1,1.8-5,2.3c-1.9,0.5-3.8,0.8-5.8,0.8h-13.1v-1.4c0.4,0,0.9,0,1.5-0.1c0.6-0.1,1-0.1,1.2-0.2c0.4-0.2,0.7-0.4,0.9-0.7
	c0.2-0.3,0.3-0.7,0.3-1.1V17c0-0.4-0.1-0.8-0.2-1.1c-0.2-0.3-0.5-0.6-0.9-0.8c-0.5-0.2-1-0.3-1.5-0.4c-0.5-0.1-0.9-0.1-1.2-0.1v-1.4
	H235c1.5,0,3.1,0.2,4.7,0.6C241.4,14.1,243,14.8,244.6,15.8 M240.8,34.4c0.6-1,1-2.1,1.3-3.5c0.3-1.3,0.4-2.9,0.4-4.7
	c0-1.7-0.2-3.3-0.5-4.7c-0.4-1.4-0.9-2.6-1.6-3.6c-0.7-1-1.6-1.8-2.6-2.3c-1.1-0.5-2.3-0.8-3.6-0.8c-0.4,0-0.9,0-1.5,0
	c-0.5,0-0.9,0-1.2,0v19.7c0,0.4,0.1,0.8,0.2,1.2c0.1,0.3,0.3,0.6,0.6,0.9c0.3,0.3,0.6,0.5,1,0.6c0.4,0.1,0.9,0.2,1.6,0.2
	c1.4,0,2.6-0.3,3.5-0.8C239.4,36.1,240.2,35.4,240.8,34.4"/>
<path fill="#1B75BC" d="M298.1,39h-16.7v-1.7c0.4,0,0.9-0.1,1.6-0.1c0.7-0.1,1.2-0.1,1.4-0.3c0.5-0.2,0.9-0.5,1.1-0.9
	c0.2-0.4,0.3-0.8,0.3-1.4V24.1h-13.2v10.4c0,0.5,0.1,0.9,0.3,1.3c0.2,0.4,0.6,0.7,1.1,0.9c0.3,0.1,0.7,0.2,1.4,0.4
	c0.7,0.1,1.2,0.2,1.6,0.2V39h-16.7v-1.7c0.4,0,0.9-0.1,1.6-0.1c0.7-0.1,1.2-0.2,1.5-0.3c0.5-0.2,0.9-0.5,1.1-0.9
	c0.2-0.4,0.3-0.8,0.3-1.4V12.8c0-0.5-0.1-0.9-0.3-1.3c-0.2-0.3-0.6-0.7-1.1-0.9c-0.4-0.2-1-0.4-1.7-0.5c-0.7-0.2-1.2-0.2-1.5-0.3
	V8.1h16.7v1.7c-0.5,0-1,0.1-1.6,0.2c-0.6,0.1-1.1,0.2-1.4,0.3c-0.6,0.2-0.9,0.5-1.1,0.9c-0.2,0.4-0.3,0.9-0.3,1.3v9.2h13.2v-9
	c0-0.5-0.1-0.9-0.3-1.3c-0.2-0.3-0.6-0.7-1.1-0.9c-0.4-0.2-0.9-0.3-1.5-0.5c-0.6-0.2-1.1-0.3-1.5-0.3V8.1h16.7v1.7
	c-0.5,0-1,0.1-1.6,0.2c-0.6,0.1-1.1,0.2-1.6,0.4c-0.6,0.2-0.9,0.5-1.1,0.9c-0.2,0.4-0.3,0.9-0.3,1.3v21.9c0,0.5,0.1,1,0.3,1.3
	c0.2,0.4,0.6,0.7,1.1,0.9c0.3,0.1,0.9,0.3,1.5,0.4c0.7,0.1,1.2,0.2,1.6,0.2V39z"/>
<path fill="#1B75BC" d="M322,16c1.3,1.2,2.3,2.6,3,4.2c0.7,1.7,1.1,3.5,1.1,5.7c0,1.9-0.3,3.7-1,5.4c-0.6,1.7-1.5,3.2-2.7,4.4
	c-1.3,1.3-2.7,2.3-4.4,3c-1.7,0.7-3.7,1.1-6.1,1.1c-1.9,0-3.7-0.3-5.4-0.9c-1.7-0.6-3.2-1.5-4.4-2.7c-1.3-1.2-2.3-2.6-3-4.2
	c-0.7-1.7-1.1-3.5-1.1-5.5c0-2.1,0.4-4,1.1-5.8c0.7-1.7,1.7-3.2,3-4.4c1.3-1.2,2.7-2.1,4.5-2.8c1.7-0.7,3.6-1,5.5-1
	c1.9,0,3.8,0.3,5.5,1C319.3,14,320.8,14.9,322,16 M317.3,34.6c0.5-1.1,0.9-2.4,1.2-3.8c0.2-1.4,0.4-3,0.4-4.8c0-1.5-0.1-3-0.3-4.4
	c-0.2-1.4-0.6-2.7-1.1-3.8c-0.5-1.1-1.2-2-2.1-2.7c-0.9-0.7-1.9-1-3.2-1c-2.2,0-3.9,1-5,3.1s-1.7,5-1.7,8.9c0,1.6,0.1,3.2,0.4,4.6
	c0.2,1.4,0.6,2.7,1.2,3.8c0.5,1.1,1.2,1.9,2.1,2.5s1.9,0.9,3.1,0.9c1.2,0,2.2-0.3,3.1-0.9C316.1,36.5,316.8,35.6,317.3,34.6"/>
<path fill="#1B75BC" d="M362.9,39h-14.1v-1.4c0.4,0,0.9-0.1,1.5-0.2c0.6-0.1,1-0.2,1.2-0.3c0.5-0.2,0.8-0.4,1-0.7
	c0.2-0.3,0.3-0.7,0.3-1.2V15.8l-8.9,22.8h-2.3c-0.1-0.4-0.4-1.2-0.8-2.4c-0.4-1.2-0.8-2.2-1.1-2.9l-6.6-17.8v15.8
	c0,1.5,0.1,2.7,0.3,3.4c0.2,0.8,0.5,1.4,1,1.7c0.3,0.3,0.9,0.5,1.6,0.7c0.8,0.2,1.3,0.4,1.7,0.4V39h-11.1v-1.4
	c0.3,0,0.8-0.1,1.5-0.2c0.7-0.1,1.3-0.3,1.7-0.7c0.5-0.3,0.8-0.9,1-1.7c0.2-0.8,0.3-2,0.3-3.5V18.7c0-0.8-0.1-1.4-0.3-1.9
	s-0.5-0.9-0.9-1.2c-0.5-0.4-1-0.6-1.5-0.7c-0.5-0.1-1-0.2-1.6-0.2v-1.4h12l6.4,17.1l5.4-13.9c0.2-0.5,0.4-1.1,0.5-1.8
	c0.2-0.7,0.3-1.2,0.3-1.4h11.5v1.4c-0.4,0-0.8,0.1-1.2,0.1s-0.8,0.2-1.2,0.3c-0.5,0.2-0.8,0.4-0.9,0.8c-0.2,0.3-0.2,0.7-0.2,1.1
	v18.4c0,0.4,0.1,0.8,0.2,1.1c0.2,0.3,0.5,0.6,0.9,0.8c0.2,0.1,0.6,0.2,1.2,0.3c0.6,0.1,1,0.2,1.3,0.2V39z"/>
<path fill="#1B75BC" d="M388.1,19.7h-1.4c-0.4-1-1-2-1.8-3c-0.9-1-1.7-1.6-2.6-1.8c-0.4-0.1-0.9-0.1-1.5-0.2c-0.7,0-1.2,0-1.6,0
	h-3.8v10h2.7c0.7,0,1.3-0.1,1.8-0.2c0.5-0.2,1-0.5,1.5-0.9c0.3-0.3,0.6-0.8,0.9-1.5c0.3-0.7,0.5-1.3,0.6-1.8h1.4v10.8h-1.4
	c-0.1-0.5-0.3-1.2-0.6-1.9c-0.3-0.8-0.6-1.3-0.9-1.6c-0.4-0.4-0.9-0.7-1.4-0.9c-0.5-0.2-1.2-0.2-1.9-0.2h-2.7v7.5
	c0,0.8,0.1,1.4,0.2,1.9c0.1,0.5,0.3,0.8,0.6,1.1c0.3,0.2,0.7,0.4,1.3,0.5c0.5,0.1,1.3,0.1,2.2,0.1c0.4,0,0.9,0,1.5,0
	c0.6,0,1.1,0,1.6-0.1c0.5-0.1,1-0.2,1.4-0.3s0.8-0.3,1-0.5c0.6-0.6,1.2-1.5,2-2.7c0.7-1.2,1.2-2.1,1.4-2.8h1.3l-0.5,8.1h-24.3v-1.4
	c0.3,0,0.8-0.1,1.4-0.1c0.6-0.1,1-0.2,1.2-0.3c0.5-0.2,0.8-0.4,0.9-0.7c0.2-0.3,0.2-0.7,0.2-1.1V17c0-0.4-0.1-0.8-0.2-1.1
	c-0.1-0.3-0.5-0.5-1-0.8c-0.3-0.1-0.8-0.3-1.3-0.4c-0.6-0.1-1-0.2-1.3-0.2v-1.4h23V19.7z"/>
<path fill="#2BB673" d="M91.8,50.1c-1.3-0.4-1.9-1.1-1.9-2c0-1.1,0.7-1.8,1.9-1.8c1,0,1.6,0.4,1.9,0.7c0.1,0.1,0.2,0.2,0.3,0.2
	c0.1,0.1,0.2,0.1,0.3,0.1c0.3,0,0.4-0.2,0.4-0.4v-0.4c0-0.3-0.2-0.6-0.5-0.8l0,0c-0.5-0.3-1.2-0.6-2.6-0.6c-1.9,0-3.3,1.3-3.3,3.1
	c0,1.6,1,2.7,3,3.3c1.7,0.6,2.3,1.1,2.3,2.3c0,1.4-1.1,1.9-2,1.9c-1.3,0-2.1-0.5-2.6-0.8l-0.1-0.1c-0.1-0.1-0.2-0.1-0.4-0.1
	c-0.3,0-0.5,0.2-0.5,0.4v0.4c0,0.3,0.2,0.6,0.6,0.8c0.6,0.3,1.6,0.7,3,0.7c2.1,0,3.5-1.4,3.5-3.3C95.1,51.3,93.4,50.7,91.8,50.1"/>
<path fill="#2BB673" d="M103.9,55.5h-4.5v-4.1h3.3c0.2,0,0.4-0.2,0.4-0.4v-0.5c0-0.2-0.2-0.4-0.4-0.4h-3.3v-3.5h4.3
	c0.2,0,0.4-0.2,0.4-0.4v-0.5c0-0.2-0.2-0.4-0.4-0.4h-5.3c-0.2,0-0.4,0.2-0.4,0.4v10.7c0,0.2,0.2,0.4,0.4,0.4h5.6
	c0.2,0,0.4-0.2,0.4-0.4v-0.5C104.3,55.7,104.1,55.5,103.9,55.5"/>
<path fill="#2BB673" d="M114,45.3h-0.5c-0.2,0-0.4,0.2-0.4,0.4v7c0,0.5,0,1,0,1.3c-0.1-0.2-0.4-0.8-0.8-1.3l-4.2-7.1
	c-0.1-0.2-0.2-0.3-0.5-0.3h-0.6c-0.2,0-0.4,0.2-0.4,0.4v10.7c0,0.2,0.2,0.4,0.4,0.4h0.5c0.2,0,0.4-0.2,0.4-0.4v-7c0-0.5,0-1,0-1.3
	c0.1,0.2,0.4,0.7,0.7,1.2l4.3,7.2c0.1,0.1,0.2,0.3,0.5,0.3h0.6c0.2,0,0.4-0.2,0.4-0.4V45.7C114.4,45.4,114.2,45.3,114,45.3"/>
<path fill="#2BB673" d="M118.8,45.3h-0.6c-0.2,0-0.4,0.2-0.4,0.4v10.7c0,0.2,0.2,0.4,0.4,0.4h0.6c0.2,0,0.4-0.2,0.4-0.4V45.7
	C119.2,45.4,119,45.3,118.8,45.3"/>
<path fill="#2BB673" d="M126.7,45.1c-3.1,0-5,2.3-5,6c0,3.7,1.9,5.9,5,5.9s5-2.3,5-5.9C131.7,47.4,129.8,45.1,126.7,45.1 M130.2,51
	c0,2.9-1.3,4.6-3.5,4.6c-2.2,0-3.5-1.7-3.5-4.6c0-2.9,1.3-4.6,3.5-4.6C128.9,46.4,130.2,48.1,130.2,51"/>
<path fill="#2BB673" d="M141.7,56c-0.1,0-0.2-0.1-0.4-0.4l-1.9-2.9c-0.3-0.4-0.5-0.7-0.6-0.8c1.5-0.4,2.4-1.6,2.4-3.2
	c0-2.2-1.3-3.4-3.6-3.4h-2.9c-0.2,0-0.4,0.2-0.4,0.4v10.7c0,0.2,0.2,0.4,0.4,0.4h0.6c0.2,0,0.4-0.2,0.4-0.4V52h1.4
	c0.2,0,0.3,0.1,0.4,0.3l2.1,3.4c0.6,1,0.8,1.1,1.3,1.1h0.7c0.2,0,0.4-0.2,0.4-0.4C142.1,56.1,141.9,56,141.7,56 M139.6,48.6
	c0,1.5-0.8,2.1-2.5,2.1h-1.4v-4.3h1.5C138.9,46.5,139.6,47.1,139.6,48.6"/>
<path fill="#2BB673" d="M153.9,55.5h-4.3v-9.8c0-0.2-0.2-0.4-0.4-0.4h-0.6c-0.2,0-0.4,0.2-0.4,0.4v10.7c0,0.2,0.2,0.4,0.4,0.4h5.3
	c0.2,0,0.4-0.2,0.4-0.4v-0.5C154.3,55.7,154.2,55.5,153.9,55.5"/>
<path fill="#2BB673" d="M157.4,45.3h-0.6c-0.2,0-0.4,0.2-0.4,0.4v10.7c0,0.2,0.2,0.4,0.4,0.4h0.6c0.2,0,0.4-0.2,0.4-0.4V45.7
	C157.9,45.4,157.7,45.3,157.4,45.3"/>
<path fill="#2BB673" d="M168.6,45.3H168c-0.3,0-0.4,0.1-0.5,0.4l-2.6,7.2c-0.1,0.3-0.4,1.1-0.4,1.4c0-0.1-0.1-0.4-0.3-1
	c0-0.1-0.1-0.3-0.1-0.4l-2.6-7.2c-0.1-0.3-0.2-0.4-0.5-0.4h-0.6c-0.2,0-0.4,0.2-0.4,0.4c0,0.2,0.1,0.4,0.2,0.6c0,0.1,0,0.1,0.1,0.2
	l3.7,10c0.1,0.2,0.2,0.4,0.4,0.4h0.4c0.3,0,0.4-0.2,0.4-0.4l3.7-10c0-0.1,0-0.1,0.1-0.2c0.1-0.2,0.2-0.4,0.2-0.6
	C169,45.4,168.9,45.3,168.6,45.3"/>
<path fill="#2BB673" d="M172.2,45.3h-0.6c-0.2,0-0.4,0.2-0.4,0.4v10.7c0,0.2,0.2,0.4,0.4,0.4h0.6c0.2,0,0.4-0.2,0.4-0.4V45.7
	C172.6,45.4,172.5,45.3,172.2,45.3"/>
<path fill="#2BB673" d="M183.2,45.3h-0.5c-0.2,0-0.4,0.2-0.4,0.4v7c0,0.5,0,1,0,1.3c-0.1-0.2-0.4-0.8-0.8-1.3l-4.2-7.1
	c-0.1-0.2-0.2-0.3-0.5-0.3h-0.5c-0.2,0-0.4,0.2-0.4,0.4v10.7c0,0.2,0.2,0.4,0.4,0.4h0.5c0.2,0,0.4-0.2,0.4-0.4v-7c0-0.5,0-1,0-1.3
	c0.1,0.2,0.4,0.7,0.7,1.2l4.3,7.2c0.1,0.1,0.2,0.3,0.5,0.3h0.6c0.2,0,0.4-0.2,0.4-0.4V45.7C183.7,45.4,183.5,45.3,183.2,45.3"/>
<path fill="#2BB673" d="M194.4,50.9h-2.7c-0.2,0-0.4,0.2-0.4,0.4v0.5c0,0.2,0.2,0.4,0.4,0.4h1.6v2.8c0,0.2-0.4,0.6-1.9,0.6
	c-2.4,0-3.8-1.7-3.8-4.6c0-2.9,1.4-4.6,3.8-4.6c1.3,0,2,0.4,2.5,0.7c0.1,0.1,0.2,0.1,0.3,0.1c0.2,0,0.4-0.2,0.4-0.4v-0.4
	c0-0.3-0.3-0.6-0.5-0.7c-0.4-0.2-1.5-0.6-2.9-0.6c-3.2,0-5.1,2.3-5.1,6c0,3.7,2,5.9,5.1,5.9c2.6,0,3.5-0.8,3.5-1.3v-4.3
	C194.9,51.1,194.7,50.9,194.4,50.9"/>
<path fill="#2BB673" d="M209.2,56c-0.1-0.1-0.3-0.2-0.4-0.4l-0.5-0.7c0.5-0.8,0.8-1.9,0.8-3.1v-0.5c0-0.2-0.2-0.4-0.4-0.4h-0.3
	c-0.2,0-0.4,0.2-0.4,0.4v0.5c0,0.7-0.1,1.4-0.3,2l-3-4.6c-0.4-0.6-0.6-1.3-0.6-1.7c0-0.8,0.4-1.1,1.3-1.1c0.7,0,1.2,0.3,1.6,0.5
	l0.1,0.1c0.1,0.1,0.2,0.1,0.3,0.1c0.3,0,0.4-0.2,0.4-0.4v-0.3c0-0.3-0.2-0.6-0.5-0.8c-0.6-0.3-1.3-0.5-2.1-0.5c-1.6,0-2.7,1-2.7,2.5
	c0,0.7,0.3,1.3,0.9,2.3l0.1,0.1c-0.9,0.5-2.4,1.6-2.4,3.6c0,1.7,1.3,3.5,3.7,3.5c1,0,1.9-0.4,2.7-1l0.1,0.2c0.3,0.4,0.6,0.6,1,0.6
	h0.6c0.2,0,0.4-0.2,0.4-0.4C209.5,56.2,209.4,56.1,209.2,56 M204.8,55.8c-1.5,0-2.5-1-2.5-2.5c0-1.1,0.8-2.1,1.6-2.5l2.8,4.2
	C206.2,55.6,205.6,55.8,204.8,55.8"/>
<path fill="#2BB673" d="M222.4,45.7c-0.3-0.2-1.2-0.6-2.7-0.6c-3,0-4.8,2.3-4.8,6c0,3.7,1.8,5.9,4.8,5.9c1.4,0,2.3-0.3,2.8-0.6
	c0.2-0.2,0.5-0.4,0.5-0.7v-0.4c0-0.2-0.2-0.4-0.4-0.4c-0.1,0-0.2,0-0.3,0.1c-0.2,0.2-1.1,0.7-2.4,0.7c-2.2,0-3.4-1.7-3.4-4.6
	c0-2.9,1.3-4.6,3.4-4.6c1,0,1.9,0.4,2.4,0.7c0.1,0.1,0.2,0.1,0.3,0.1c0.2,0,0.4-0.2,0.4-0.4v-0.4C222.9,46,222.6,45.8,222.4,45.7"/>
<path fill="#2BB673" d="M233.5,55.7l-3.7-10c-0.1-0.2-0.2-0.4-0.4-0.4h-0.4c-0.3,0-0.4,0.2-0.4,0.4l-3.7,10c0,0.1,0,0.1-0.1,0.2
	c-0.1,0.2-0.2,0.4-0.2,0.6c0,0.2,0.2,0.4,0.4,0.4h0.6c0.3,0,0.4-0.1,0.5-0.4l1.1-3h4.1l1.1,3c0.1,0.2,0.2,0.4,0.5,0.4h0.6
	c0.2,0,0.4-0.2,0.4-0.4c0-0.2-0.1-0.4-0.2-0.6C233.6,55.8,233.5,55.7,233.5,55.7 M230.7,52.2h-3.2l1.2-3.3c0-0.1,0.1-0.3,0.2-0.5
	c0.2-0.5,0.2-0.7,0.3-0.8c0.1,0.3,0.4,1.3,0.4,1.3L230.7,52.2z"/>
<path fill="#2BB673" d="M243.3,56c-0.1,0-0.2-0.1-0.4-0.4l-1.9-2.9c-0.3-0.4-0.5-0.7-0.6-0.8c1.5-0.4,2.4-1.6,2.4-3.2
	c0-2.2-1.3-3.4-3.6-3.4h-2.9c-0.2,0-0.4,0.2-0.4,0.4v10.7c0,0.2,0.2,0.4,0.4,0.4h0.6c0.2,0,0.4-0.2,0.4-0.4V52h1.4
	c0.2,0,0.3,0.1,0.4,0.3l2.1,3.4c0.6,1,0.8,1.1,1.3,1.1h0.7c0.2,0,0.4-0.2,0.4-0.4C243.6,56.1,243.4,56,243.3,56 M241.2,48.6
	c0,1.5-0.8,2.1-2.5,2.1h-1.4v-4.3h1.5C240.5,46.5,241.2,47.1,241.2,48.6"/>
<path fill="#2BB673" d="M251.7,55.5h-4.5v-4.1h3.3c0.2,0,0.4-0.2,0.4-0.4v-0.5c0-0.2-0.2-0.4-0.4-0.4h-3.3v-3.5h4.3
	c0.2,0,0.4-0.2,0.4-0.4v-0.5c0-0.2-0.2-0.4-0.4-0.4h-5.3c-0.2,0-0.4,0.2-0.4,0.4v10.7c0,0.2,0.2,0.4,0.4,0.4h5.6
	c0.2,0,0.4-0.2,0.4-0.4v-0.5C252.2,55.7,252,55.5,251.7,55.5"/>
<path fill="#2BB673" d="M261.6,50.9H259c-0.2,0-0.4,0.2-0.4,0.4v0.5c0,0.2,0.2,0.4,0.4,0.4h1.6v2.8c0,0.2-0.4,0.6-1.9,0.6
	c-2.4,0-3.8-1.7-3.8-4.6c0-2.9,1.4-4.6,3.8-4.6c1.3,0,2,0.4,2.5,0.7c0.1,0.1,0.2,0.1,0.3,0.1c0.2,0,0.4-0.2,0.4-0.4v-0.4
	c0-0.3-0.3-0.6-0.5-0.7c-0.4-0.2-1.5-0.6-2.9-0.6c-3.2,0-5.1,2.3-5.1,6c0,3.7,2,5.9,5.1,5.9c2.6,0,3.5-0.8,3.5-1.3v-4.3
	C262.1,51.1,261.9,50.9,261.6,50.9"/>
<path fill="#2BB673" d="M266,45.3h-0.6c-0.2,0-0.4,0.2-0.4,0.4v10.7c0,0.2,0.2,0.4,0.4,0.4h0.6c0.2,0,0.4-0.2,0.4-0.4V45.7
	C266.4,45.4,266.3,45.3,266,45.3"/>
<path fill="#2BB673" d="M277.2,45.3h-0.6c-0.3,0-0.4,0.1-0.5,0.4l-2.6,7.2c-0.1,0.3-0.4,1.1-0.4,1.4c0-0.1-0.1-0.4-0.3-1
	c0-0.1-0.1-0.2-0.1-0.3l-2.6-7.2c-0.1-0.3-0.2-0.4-0.5-0.4H269c-0.2,0-0.4,0.2-0.4,0.4c0,0.2,0.1,0.4,0.2,0.6c0,0.1,0,0.1,0.1,0.2
	l3.7,10c0.1,0.2,0.2,0.4,0.4,0.4h0.4c0.3,0,0.4-0.2,0.4-0.4l3.7-10c0-0.1,0-0.1,0.1-0.2c0.1-0.2,0.2-0.4,0.2-0.6
	C277.6,45.4,277.4,45.3,277.2,45.3"/>
<path fill="#2BB673" d="M285.7,55.5h-4.5v-4.1h3.3c0.2,0,0.4-0.2,0.4-0.4v-0.5c0-0.2-0.2-0.4-0.4-0.4h-3.3v-3.5h4.3
	c0.2,0,0.4-0.2,0.4-0.4v-0.5c0-0.2-0.2-0.4-0.4-0.4h-5.3c-0.2,0-0.4,0.2-0.4,0.4v10.7c0,0.2,0.2,0.4,0.4,0.4h5.6
	c0.2,0,0.4-0.2,0.4-0.4v-0.5C286.2,55.7,286,55.5,285.7,55.5"/>
<path fill="#2BB673" d="M295.9,56c-0.1,0-0.2-0.1-0.4-0.4l-1.9-2.9c-0.3-0.4-0.5-0.7-0.6-0.8c1.5-0.4,2.4-1.6,2.4-3.2
	c0-2.2-1.3-3.4-3.6-3.4h-2.9c-0.2,0-0.4,0.2-0.4,0.4v10.7c0,0.2,0.2,0.4,0.4,0.4h0.6c0.2,0,0.4-0.2,0.4-0.4V52h1.4
	c0.2,0,0.3,0.1,0.4,0.3l2.1,3.4c0.6,1,0.8,1.1,1.3,1.1h0.7c0.2,0,0.4-0.2,0.4-0.4C296.3,56.1,296.1,56,295.9,56 M293.9,48.6
	c0,1.5-0.8,2.1-2.5,2.1H290v-4.3h1.5C293.2,46.5,293.9,47.1,293.9,48.6"/>
<path fill="#2BB673" d="M309.8,56c-0.1,0-0.2-0.1-0.4-0.4l-1.9-2.9c-0.3-0.4-0.5-0.7-0.6-0.8c1.5-0.4,2.4-1.6,2.4-3.2
	c0-2.2-1.3-3.4-3.6-3.4h-2.9c-0.2,0-0.4,0.2-0.4,0.4v10.7c0,0.2,0.2,0.4,0.4,0.4h0.6c0.2,0,0.4-0.2,0.4-0.4V52h1.4
	c0.2,0,0.3,0.1,0.4,0.3l2.1,3.4c0.6,1,0.8,1.1,1.3,1.1h0.7c0.2,0,0.4-0.2,0.4-0.4C310.2,56.1,310,56,309.8,56 M307.7,48.6
	c0,1.5-0.8,2.1-2.5,2.1h-1.4v-4.3h1.5C307,46.5,307.7,47.1,307.7,48.6"/>
<path fill="#2BB673" d="M318.3,55.5h-4.5v-4.1h3.3c0.2,0,0.4-0.2,0.4-0.4v-0.5c0-0.2-0.2-0.4-0.4-0.4h-3.3v-3.5h4.3
	c0.2,0,0.4-0.2,0.4-0.4v-0.5c0-0.2-0.2-0.4-0.4-0.4h-5.3c-0.2,0-0.4,0.2-0.4,0.4v10.7c0,0.2,0.2,0.4,0.4,0.4h5.6
	c0.2,0,0.4-0.2,0.4-0.4v-0.5C318.7,55.7,318.5,55.5,318.3,55.5"/>
<path fill="#2BB673" d="M326.8,45.3h-5.3c-0.2,0-0.4,0.2-0.4,0.4v10.7c0,0.2,0.2,0.4,0.4,0.4h0.6c0.2,0,0.4-0.2,0.4-0.4v-5h3.3
	c0.2,0,0.4-0.2,0.4-0.4v-0.5c0-0.2-0.2-0.4-0.4-0.4h-3.3v-3.5h4.3c0.2,0,0.4-0.2,0.4-0.4v-0.5C327.2,45.4,327,45.3,326.8,45.3"/>
<path fill="#2BB673" d="M335.3,55.5h-4.5v-4.1h3.3c0.2,0,0.4-0.2,0.4-0.4v-0.5c0-0.2-0.2-0.4-0.4-0.4h-3.3v-3.5h4.3
	c0.2,0,0.4-0.2,0.4-0.4v-0.5c0-0.2-0.2-0.4-0.4-0.4h-5.3c-0.2,0-0.4,0.2-0.4,0.4v10.7c0,0.2,0.2,0.4,0.4,0.4h5.6
	c0.2,0,0.4-0.2,0.4-0.4v-0.5C335.7,55.7,335.5,55.5,335.3,55.5"/>
<path fill="#2BB673" d="M345.5,56c-0.1,0-0.2-0.1-0.4-0.4l-1.9-2.9c-0.3-0.4-0.5-0.7-0.6-0.8c1.5-0.4,2.4-1.6,2.4-3.2
	c0-2.2-1.3-3.4-3.6-3.4h-2.9c-0.2,0-0.4,0.2-0.4,0.4v10.7c0,0.2,0.2,0.4,0.4,0.4h0.6c0.2,0,0.4-0.2,0.4-0.4V52h1.4
	c0.2,0,0.3,0.1,0.4,0.3l2.1,3.4c0.6,1,0.8,1.1,1.3,1.1h0.7c0.2,0,0.4-0.2,0.4-0.4C345.8,56.1,345.6,56,345.5,56 M343.4,48.6
	c0,1.5-0.8,2.1-2.5,2.1h-1.4v-4.3h1.5C342.7,46.5,343.4,47.1,343.4,48.6"/>
<path fill="#2BB673" d="M355.3,56c-0.1,0-0.2-0.1-0.4-0.4l-1.9-2.9c-0.3-0.4-0.5-0.7-0.6-0.8c1.5-0.4,2.4-1.6,2.4-3.2
	c0-2.2-1.3-3.4-3.6-3.4h-2.9c-0.2,0-0.4,0.2-0.4,0.4v10.7c0,0.2,0.2,0.4,0.4,0.4h0.6c0.2,0,0.4-0.2,0.4-0.4V52h1.4
	c0.2,0,0.3,0.1,0.4,0.3l2.1,3.4c0.6,1,0.8,1.1,1.3,1.1h0.7c0.2,0,0.4-0.2,0.4-0.4C355.7,56.1,355.5,56,355.3,56 M353.3,48.6
	c0,1.5-0.8,2.1-2.5,2.1h-1.4v-4.3h1.5C352.6,46.5,353.3,47.1,353.3,48.6"/>
<path fill="#2BB673" d="M366.1,55.7l-3.7-10c-0.1-0.2-0.2-0.4-0.4-0.4h-0.4c-0.3,0-0.4,0.2-0.4,0.4l-3.7,10c0,0.1,0,0.1-0.1,0.2
	c-0.1,0.2-0.2,0.4-0.2,0.6c0,0.2,0.2,0.4,0.4,0.4h0.6c0.3,0,0.4-0.1,0.5-0.4l1.1-3h4.1l1.1,3c0.1,0.2,0.2,0.4,0.5,0.4h0.6
	c0.2,0,0.4-0.2,0.4-0.4c0-0.2-0.1-0.4-0.2-0.6C366.1,55.8,366.1,55.7,366.1,55.7 M363.3,52.2h-3.2l1.2-3.3c0-0.1,0.1-0.3,0.2-0.5
	c0.2-0.5,0.2-0.7,0.3-0.8c0.1,0.3,0.4,1.3,0.4,1.3L363.3,52.2z"/>
<path fill="#2BB673" d="M374.2,55.5h-4.3v-9.8c0-0.2-0.2-0.4-0.4-0.4h-0.6c-0.2,0-0.4,0.2-0.4,0.4v10.7c0,0.2,0.2,0.4,0.4,0.4h5.3
	c0.2,0,0.4-0.2,0.4-0.4v-0.5C374.6,55.7,374.5,55.5,374.2,55.5"/>
<path fill="#2BB673" d="M379.9,50.1c-1.3-0.4-1.9-1.1-1.9-2c0-1.1,0.7-1.8,1.9-1.8c1,0,1.6,0.4,1.9,0.7c0.1,0.1,0.2,0.2,0.3,0.2
	c0.1,0.1,0.2,0.1,0.3,0.1c0.3,0,0.4-0.2,0.4-0.4v-0.4c0-0.3-0.2-0.6-0.5-0.8l0,0c-0.5-0.3-1.2-0.6-2.6-0.6c-1.9,0-3.3,1.3-3.3,3.1
	c0,1.6,1,2.7,3,3.3c1.7,0.6,2.3,1.1,2.3,2.3c0,1.4-1.1,1.9-2,1.9c-1.3,0-2.1-0.5-2.6-0.8l-0.1-0.1c-0.1-0.1-0.2-0.1-0.4-0.1
	c-0.3,0-0.5,0.2-0.5,0.4v0.4c0,0.3,0.2,0.6,0.6,0.8c0.6,0.3,1.6,0.7,3,0.7c2.1,0,3.5-1.4,3.5-3.3C383.3,51.3,381.6,50.7,379.9,50.1"
	/>
</svg>
